<svg width="457" height="562" viewBox="0 0 457 562" fill="none" xmlns="http://www.w3.org/2000/svg">
<path d="M249 6.68751C250.307 7.28152 251.616 7.87319 252.925 8.46265C255.626 9.6829 258.321 10.9162 261.01 12.1611C264.809 13.9175 268.625 15.6338 272.449 17.3359C277.297 19.4958 282.141 21.6642 286.98 23.8438C293.479 26.7686 299.987 29.6709 306.5 32.5625C308.104 33.2749 308.104 33.2749 309.74 34.0017C315.134 36.397 320.529 38.7909 325.923 41.1841C347.183 50.6157 368.43 60.0737 389.634 69.6308C400.079 74.3389 410.53 79.0342 421 83.6875C422.077 84.167 423.155 84.6466 424.265 85.1406C428.838 87.1722 433.417 89.1875 438.023 91.1445C438.771 91.464 439.519 91.7834 440.289 92.1126C442.177 92.9156 444.069 93.7084 445.961 94.5C449.663 96.3271 453.109 98.2178 455 102C455.559 107.684 455.559 107.684 455 110C451.056 114.681 446.637 116.984 441.156 119.574C440.31 119.984 439.463 120.394 438.59 120.816C435.898 122.117 433.199 123.402 430.5 124.688C428.686 125.562 426.872 126.438 425.059 127.314C421.731 128.918 418.403 130.52 415.068 132.108C414.402 132.426 413.735 132.744 413.048 133.072C410.727 134.124 408.372 135.069 406 136C405.873 143.884 405.786 151.767 405.725 159.651C405.703 162.333 405.668 165.015 405.623 167.697C405.562 171.552 405.534 175.406 405.512 179.262C405.486 180.461 405.46 181.66 405.434 182.895C405.32 189.519 405.32 189.519 408.421 195.163C409.272 195.769 410.123 196.376 411 197C414.248 200.945 415.121 203.96 415.193 209.035C415.217 210.572 415.217 210.572 415.242 212.14C415.286 216.816 415.327 221.492 415.35 226.168C415.367 228.636 415.394 231.103 415.432 233.571C415.487 237.128 415.509 240.684 415.523 244.242C415.546 245.344 415.569 246.447 415.592 247.582C415.579 252.354 415.565 255.137 412.911 259.193C409.325 261.419 407.114 261.645 402.906 261.664C402.237 261.669 401.568 261.674 400.879 261.679C399.47 261.682 398.061 261.673 396.653 261.652C394.505 261.625 392.362 261.652 390.215 261.684C388.841 261.68 387.467 261.674 386.094 261.664C384.853 261.658 383.612 261.653 382.334 261.647C379 261 379 261 376.096 259.169C372.966 254.437 373.302 250.195 373.371 244.637C373.369 243.531 373.366 242.425 373.364 241.285C373.365 238.948 373.378 236.61 373.403 234.273C373.437 230.71 373.424 227.15 373.404 223.588C373.411 221.312 373.421 219.037 373.434 216.762C373.429 215.703 373.424 214.645 373.419 213.554C373.517 207.282 374.107 202.103 378 197C379.056 196.223 380.112 195.446 381.2 194.646C384.267 191.748 384.439 191.272 384.773 187.302C384.814 185.424 384.823 183.546 384.805 181.668C384.818 180.676 384.832 179.684 384.846 178.663C384.884 175.504 384.88 172.347 384.875 169.188C384.893 167.042 384.914 164.897 384.938 162.752C384.989 157.501 385.008 152.251 385 147C373.611 152.079 362.271 157.221 351.062 162.688C349.829 163.286 348.596 163.885 347.362 164.483C344.825 165.714 342.289 166.945 339.752 168.178C333.758 171.09 327.753 173.981 321.75 176.875C312.725 181.23 303.705 185.595 294.689 189.969C291.909 191.317 289.129 192.664 286.348 194.01C280.171 197.001 273.996 199.997 267.838 203.026C265.206 204.32 262.571 205.608 259.936 206.895C258.125 207.782 256.318 208.677 254.512 209.572C241.59 215.875 229.796 219.864 215.562 215.188C207.383 211.976 199.601 207.921 191.781 203.93C186.416 201.195 181.003 198.579 175.562 196C164.966 190.965 154.419 185.832 143.875 180.688C111.024 164.656 111.024 164.656 77.9431 149.106C67.6061 144.324 57.3666 139.351 47.1378 134.342C39.5221 130.613 31.9015 126.914 24.1719 123.426C22.9751 122.884 21.7784 122.343 20.5454 121.785C18.3362 120.794 16.1226 119.812 13.9038 118.842C8.70169 116.51 4.50654 114.579 0.99999 110C-0.0389497 107.132 0.21012 104.921 0.99999 102C4.91094 97.3844 10.0816 94.6637 15.5547 92.3281C16.2759 92.0086 16.9972 91.6891 17.7403 91.3598C20.1137 90.3117 22.4941 89.281 24.875 88.25C26.5705 87.5049 28.2654 86.7586 29.96 86.0112C34.4122 84.051 38.8705 82.1052 43.3307 80.1632C50.1304 77.2001 56.9212 74.2163 63.7138 71.2369C66.2698 70.1163 68.8264 68.9974 71.383 67.8784C84.6235 62.0774 97.8021 56.1455 110.965 50.1711C126.721 43.0198 142.516 35.9616 158.336 28.9548C164.523 26.2137 170.705 23.46 176.886 20.7033C180.756 18.9774 184.629 17.2551 188.506 15.5422C189.239 15.2181 189.973 14.8939 190.729 14.5599C192.166 13.9249 193.603 13.2901 195.04 12.6554C199.203 10.8115 203.342 8.92218 207.469 6.9961C208.412 6.56547 209.356 6.13484 210.328 5.69117C211.969 4.94197 213.603 4.17561 215.224 3.38502C227.194 -1.99416 237.708 1.36495 249 6.68751Z" fill="#67C198"/>
<path d="M0.999996 264C3.8131 263.981 6.62607 263.967 9.43921 263.956C10.2225 263.95 11.0059 263.945 11.8129 263.939C18.7429 263.919 25.5835 264.39 32.4683 265.167C33.5936 265.294 33.5936 265.294 34.7416 265.423C35.8905 265.554 35.8905 265.554 37.0625 265.687C37.8609 265.776 38.6594 265.865 39.482 265.957C96.8112 272.4 151.007 293.673 193 334C193.569 334.542 194.138 335.083 194.724 335.642C206.024 346.451 215.185 358.07 224 371C221.361 376.528 218.507 381.905 215.477 387.227C197.271 419.316 188.841 452.433 188.76 489.324C188.75 491.967 188.719 494.61 188.688 497.254C188.618 508.679 189.658 519.586 191.627 530.836C192.196 534.134 192.689 537.441 193.188 540.75C193.458 542.5 193.729 544.25 194 546C187.315 542.796 181.021 539.097 174.688 535.25C172.452 533.9 170.217 532.551 167.98 531.203C167.12 530.684 167.12 530.684 166.242 530.154C160.016 526.4 153.759 522.699 147.5 519C132.325 510.02 117.175 500.997 102.125 491.809C100.361 490.732 98.5967 489.656 96.8325 488.58C95.6558 487.862 94.4793 487.144 93.303 486.425C86.8727 482.501 80.4177 478.634 73.8711 474.906C73.2901 474.575 72.7092 474.243 72.1106 473.902C69.3722 472.342 66.6285 470.793 63.8752 469.26C52.5053 462.828 42.4848 454.955 33 446C32.2897 445.343 31.5794 444.685 30.8477 444.008C25.7681 439.152 21.7652 433.924 18 428C17.3387 426.96 16.6774 425.919 15.9961 424.848C12.2379 418.622 9.15265 412.409 6.6875 405.562C6.45732 404.932 6.22714 404.302 5.98999 403.652C5.24302 401.452 4.6179 399.24 4 397C3.74416 396.082 3.48832 395.165 3.22473 394.22C0.114655 381.183 0.622927 368.05 0.707027 354.723C0.712632 352.098 0.716898 349.474 0.71989 346.85C0.729146 340.688 0.753669 334.526 0.783939 328.365C0.817689 321.339 0.83402 314.313 0.849025 307.288C0.880226 292.858 0.932856 278.429 0.999996 264Z" fill="#AAE7BF"/>
<path d="M438.402 301.926C440.119 301.932 441.836 301.937 443.553 301.942C447.702 301.955 451.851 301.975 456 302C456.094 311.416 456.164 320.832 456.207 330.248C456.228 334.623 456.256 338.998 456.302 343.372C456.709 383.243 451.853 416.902 422.969 447.09C409.922 460.201 392.834 468.991 376.991 478.183C368.108 483.339 359.267 488.565 350.438 493.813C349.447 494.401 349.447 494.401 348.437 495.001C341.391 499.186 334.353 503.385 327.328 507.605C321.734 510.966 316.125 514.299 310.505 517.616C300.449 523.551 290.429 529.537 280.457 535.611C278.695 536.683 276.933 537.753 275.169 538.823C274.595 539.171 274.021 539.52 273.429 539.879C272.859 540.224 272.29 540.57 271.703 540.926C267.371 543.555 263.05 546.2 258.734 548.856C256.802 550.029 254.87 551.203 252.938 552.375C252.088 552.904 251.239 553.434 250.364 553.979C241.789 559.141 232.103 562.435 222 561C216.952 559.583 212.371 557.914 208 555C205.342 544.437 205.597 533.014 205.625 522.188C205.626 521.384 205.626 520.58 205.627 519.752C205.695 497.726 209.08 476.925 216 456C216.336 454.97 216.336 454.97 216.678 453.92C230.394 412.66 258.182 373.967 293.32 348.231C294.997 347.002 296.655 345.751 298.312 344.496C338.96 314.163 388.257 301.618 438.402 301.926Z" fill="#AAE7BF"/>
<path d="M79 171C82.7964 171.759 85.0256 172.323 88.3335 173.958C89.1607 174.364 89.9879 174.769 90.8401 175.187C92.1684 175.848 92.1684 175.848 93.5234 176.523C94.9175 177.209 94.9175 177.209 96.3397 177.909C98.3251 178.886 100.309 179.866 102.292 180.848C105.395 182.385 108.5 183.914 111.607 185.442C115.647 187.428 119.686 189.417 123.724 191.406C133.108 196.025 142.543 200.532 152 205C153.291 205.611 154.583 206.222 155.874 206.833C170.075 213.553 184.283 220.261 198.562 226.812C199.405 227.203 200.247 227.593 201.115 227.994C215.858 234.708 229.309 237.347 245 232C261.976 225.432 278.219 216.61 294.555 208.613C302.889 204.533 311.25 200.513 319.633 196.532C325.908 193.545 332.133 190.467 338.31 187.282C342.787 185 342.787 185 345 185C345 216.35 345 247.7 345 280C338.933 282.758 332.99 285.434 326.838 287.927C300.401 298.78 276.288 314.326 254.625 332.891C254.035 333.394 253.445 333.898 252.838 334.417C251.679 335.409 250.525 336.406 249.375 337.409C246.917 339.524 245.11 340.963 242 342C241.417 341.212 240.835 340.425 240.234 339.613C233.97 331.247 227.253 323.519 220 316C219.075 315.034 219.075 315.034 218.131 314.048C209.3 304.868 200.244 296.568 190 289C189.114 288.319 188.229 287.639 187.316 286.938C174.206 277.04 159.854 268.951 145 262C144.078 261.56 144.078 261.56 143.138 261.111C122.65 251.392 101.125 246.106 79 241C79 217.9 79 194.8 79 171Z" fill="#67C198"/>
<path d="M285 355C285.66 355.33 286.32 355.66 287 356C277.43 365.57 267.86 375.14 258 385C257.34 384.67 256.68 384.34 256 384C262.208 377.166 268.482 370.415 275 363.875C275.539 363.331 276.078 362.788 276.634 362.228C279.283 359.588 281.929 357.141 285 355Z" fill="#A1E3B8"/>
<path d="M185 540C189.75 541.875 189.75 541.875 192 543C192.33 542.34 192.66 541.68 193 541C193.33 542.65 193.66 544.3 194 546C192.684 545.382 191.372 544.756 190.062 544.125C189.332 543.777 188.601 543.429 187.848 543.07C186 542 186 542 185 540Z" fill="#A0E3B8"/>
<path d="M383 193C383.66 193.33 384.32 193.66 385 194C383.71 195.376 382.373 196.708 381 198C380.34 198 379.68 198 379 198C378.67 198.99 378.34 199.98 378 201C377.67 200.34 377.34 199.68 377 199C380.75 194.125 380.75 194.125 383 193Z" fill="#58BA8E"/>
</svg>
