<?xml version="1.0" encoding="UTF-8"?>
<svg version="1.1" xmlns="http://www.w3.org/2000/svg" width="1024" height="1024">
<!-- <path d="M0 0 C337.92 0 675.84 0 1024 0 C1024 337.92 1024 675.84 1024 1024 C686.08 1024 348.16 1024 0 1024 C0 686.08 0 348.16 0 0 Z " fill="#FEFEFE" transform="translate(0,0)"/> -->
<path d="M0 0 C1.30730771 0.59401387 2.61568368 1.1856816 3.92504883 1.77514648 C6.62607838 2.99539731 9.32052768 4.22866895 12.01025391 5.47363281 C15.80943351 7.23004325 19.62546845 8.9462906 23.44921875 10.6484375 C28.29730505 12.80828865 33.1412441 14.97664761 37.98046875 17.15625 C44.47879004 20.08107138 50.98681916 22.98344175 57.5 25.875 C59.10391602 26.58740845 59.10391602 26.58740845 60.74023438 27.31420898 C66.13409494 29.70947865 71.52854913 32.1034081 76.92333984 34.49658203 C98.18316016 43.92818685 119.43016634 53.38616945 140.63388062 62.94332886 C151.07936383 67.65135338 161.53001299 72.34667244 172 77 C173.07733398 77.47953125 174.15466797 77.9590625 175.26464844 78.453125 C179.83849772 80.48466071 184.41717863 82.49997269 189.0234375 84.45703125 C189.77109375 84.77647705 190.51875 85.09592285 191.2890625 85.42504883 C193.1766251 86.22810244 195.06853935 87.02090862 196.9609375 87.8125 C200.66264782 89.63956525 204.10887814 91.53025629 206 95.3125 C206.55910987 100.99678373 206.55910987 100.99678373 206 103.3125 C202.05561934 107.9932299 197.63731251 110.29659909 192.15625 112.88671875 C191.30953735 113.29662552 190.46282471 113.70653229 189.5904541 114.12886047 C186.89823403 115.42905291 184.1992477 116.71447184 181.5 118 C179.68575424 118.87473142 177.87194726 119.75037352 176.05859375 120.62695312 C172.73104793 122.23017746 169.40292963 123.83208475 166.06835938 125.4206543 C165.40171265 125.73866501 164.73506592 126.05667572 164.04821777 126.38432312 C161.72664606 127.43637394 159.37222628 128.38107205 157 129.3125 C156.87322921 137.19603305 156.78566005 145.07930331 156.7253418 152.96362305 C156.70302006 155.64588454 156.66823206 158.3275542 156.62280273 161.00952148 C156.56215475 164.86459255 156.53378873 168.7187577 156.51171875 172.57421875 C156.48591232 173.77334396 156.4601059 174.97246918 156.43351746 176.20793152 C156.32018554 182.83120091 156.32018554 182.83120091 159.42114258 188.47583008 C160.27216553 189.08193115 161.12318848 189.68803223 162 190.3125 C165.24848927 194.25709411 166.12051649 197.27220388 166.19287109 202.34716797 C166.21696548 203.88423904 166.21696548 203.88423904 166.24154663 205.45236206 C166.28603151 210.12855319 166.32704302 214.8046039 166.35009766 219.48095703 C166.36667581 221.94850076 166.39398983 224.41599612 166.43212891 226.88330078 C166.48682859 230.44068312 166.5087601 233.99694156 166.5234375 237.5546875 C166.54610687 238.65690643 166.56877625 239.75912537 166.59213257 240.89474487 C166.57894319 245.66608538 166.56497206 248.44899981 163.91064453 252.50585938 C160.32515221 254.73137885 158.11444396 254.95743435 153.90625 254.9765625 C153.23710571 254.98134613 152.56796143 254.98612976 151.87854004 254.99105835 C150.46994666 254.99444656 149.06127348 254.98531922 147.65283203 254.96435547 C145.50504114 254.93756289 143.36247347 254.96412766 141.21484375 254.99609375 C139.84113438 254.99278945 138.46742824 254.98638276 137.09375 254.9765625 C135.85302734 254.97092285 134.61230469 254.9652832 133.33398438 254.95947266 C130 254.3125 130 254.3125 127.09594727 252.48120117 C123.96585921 247.74906222 124.30187155 243.50789519 124.37109375 237.94921875 C124.36868179 236.84326859 124.36626984 235.73731842 124.36378479 234.59785461 C124.36476326 232.26026828 124.37815662 229.92265878 124.40307617 227.58520508 C124.43728117 224.02279041 124.4237586 220.46287132 124.40429688 216.90039062 C124.41119856 214.62498951 124.42087384 212.34959478 124.43359375 210.07421875 C124.42863388 209.01563156 124.42367401 207.95704437 124.41856384 206.86637878 C124.51746777 200.59404606 125.10676455 195.41557634 129 190.3125 C130.05590332 189.53559814 131.11180664 188.75869629 132.19970703 187.95825195 C135.26724321 185.06000526 135.43879127 184.58430122 135.77294922 180.61401367 C135.81374271 178.7365787 135.82250314 176.85826235 135.8046875 174.98046875 C135.81839386 173.98872147 135.83210022 172.99697418 135.84622192 171.97517395 C135.88352857 168.81632147 135.87980645 165.65904156 135.875 162.5 C135.89312623 160.35479313 135.91392868 158.20960708 135.9375 156.06445312 C135.98935661 150.81364796 136.00755924 145.56353771 136 140.3125 C124.61093024 145.3910619 113.27130333 150.53304936 102.0625 156 C100.82924667 156.59876901 99.59584369 157.19722988 98.36230469 157.79541016 C95.82512393 159.0260327 93.28856356 160.25792009 90.75244141 161.49072266 C84.75806288 164.40296427 78.75308038 167.29325329 72.75 170.1875 C63.72502007 174.54263103 54.70465991 178.90718928 45.6887207 183.28100586 C42.90919292 184.62938062 40.12906222 185.97649948 37.34838867 187.32250977 C31.17104616 190.31358026 24.99648412 193.30955848 18.837677 196.33865356 C16.20559755 197.63222049 13.57075774 198.92010196 10.93554688 200.20727539 C9.12496047 201.09439665 7.3182636 201.98944279 5.51171875 202.88476562 C-7.40989705 209.18744186 -19.20438605 213.17635166 -33.4375 208.5 C-41.61650837 205.28811065 -49.39849579 201.23301018 -57.21875 197.2421875 C-62.58348805 194.50795934 -67.99665837 191.89125549 -73.4375 189.3125 C-84.03376717 184.27701053 -94.58118158 179.14416961 -105.125 174 C-137.97578114 157.96814344 -137.97578114 157.96814344 -171.05688477 142.41870117 C-181.39388571 137.63642544 -191.63341297 132.66327003 -201.86218262 127.6545105 C-209.47789566 123.92559658 -217.09849762 120.22628076 -224.828125 116.73828125 C-226.0248584 116.19695557 -227.2215918 115.65562988 -228.45458984 115.09790039 C-230.66380832 114.10619625 -232.87742083 113.12419731 -235.09619141 112.15405273 C-240.29830354 109.82258954 -244.49344732 107.8917323 -248 103.3125 C-249.03893981 100.44436298 -248.78987025 98.23328464 -248 95.3125 C-244.08904668 90.69687442 -238.9184271 87.97617764 -233.4453125 85.640625 C-232.72405182 85.32108856 -232.00279114 85.00155212 -231.25967407 84.67233276 C-228.88632287 83.62421839 -226.50584735 82.59345864 -224.125 81.5625 C-222.42952185 80.8173601 -220.73454475 80.0710792 -219.04003906 79.32373047 C-214.58782838 77.36352884 -210.12951274 75.41764785 -205.66931152 73.47570801 C-198.86955396 70.51257224 -192.07880146 67.52878764 -185.28616333 64.54937744 C-182.73022069 63.42882857 -180.17359047 62.30985844 -177.61694336 61.19091797 C-164.37652997 55.38985546 -151.19789472 49.45803754 -138.03497314 43.48355103 C-122.27931411 36.33226178 -106.48441543 29.27411836 -90.6640625 22.26725769 C-84.47664957 19.52615289 -78.29485901 16.77252515 -72.11439514 14.01579285 C-68.24350653 12.28985906 -64.3710764 10.56760083 -60.49438477 8.85473633 C-59.76075211 8.53055222 -59.02711945 8.2063681 -58.27125549 7.87236023 C-56.83432664 7.23740492 -55.39734651 6.60256563 -53.96031189 5.96784973 C-49.79669492 4.12395301 -45.65771666 2.23467194 -41.53125 0.30859375 C-40.58757568 -0.12203369 -39.64390137 -0.55266113 -38.67163086 -0.99633789 C-37.03058011 -1.7455366 -35.39715036 -2.51189968 -33.77563477 -3.30249023 C-21.80565781 -8.68166719 -11.29190664 -5.32255632 0 0 Z " fill="#67C198" transform="translate(533,245.6875)"/>
<path d="M0 0 C2.8131026 -0.01909177 5.62607195 -0.03285254 8.43920898 -0.04370117 C9.22254356 -0.04955986 10.00587814 -0.05541855 10.81295013 -0.06145477 C17.74286802 -0.08139298 24.58347874 0.39014528 31.46826172 1.16723633 C32.59358307 1.2935997 32.59358307 1.2935997 33.74163818 1.42251587 C34.89046478 1.55368301 34.89046478 1.55368301 36.0625 1.6875 C36.86093323 1.77647552 37.65936646 1.86545105 38.48199463 1.9571228 C95.81118113 8.40040534 150.00695306 29.6732413 192 70 C192.56895996 70.54172852 193.13791992 71.08345703 193.72412109 71.64160156 C205.02386786 82.45059178 214.18547167 94.07007931 223 107 C220.36085246 112.52831958 217.5067714 117.90514639 214.47705078 123.22705078 C196.27146583 155.31603145 187.84068173 188.43272922 187.75976562 225.32373047 C187.75011877 227.9674499 187.71902344 230.61036997 187.6875 233.25390625 C187.61769132 244.67861764 188.65825763 255.58563476 190.62666321 266.83599854 C191.19557145 270.13360618 191.68930416 273.44101836 192.1875 276.75 C192.45792435 278.50006325 192.72857267 280.25009203 193 282 C186.3147176 278.79613987 180.02106689 275.09652231 173.6875 271.25 C171.4522363 269.90035679 169.2165445 268.55142239 166.98046875 267.203125 C166.119944 266.6837738 166.119944 266.6837738 165.24203491 266.15393066 C159.01622207 262.39959958 152.75864505 258.69927877 146.5 255 C131.32473063 246.02015869 116.17488414 236.99741835 101.125 227.80859375 C99.36091047 226.7321978 97.59674294 225.65592995 95.83248901 224.57980347 C94.65580632 223.86195378 93.47931184 223.14379549 92.30300903 222.42532349 C85.87271947 218.50112241 79.41766201 214.63384458 72.87109375 210.90625 C72.29013443 210.57484009 71.70917511 210.24343018 71.11061096 209.90197754 C68.37221765 208.34216886 65.6285457 206.79313022 62.87524414 205.25976562 C51.50527613 198.82767045 41.48476238 190.95515635 32 182 C31.28972656 181.34257813 30.57945312 180.68515625 29.84765625 180.0078125 C24.76805816 175.15245771 20.76520341 169.92381018 17 164 C16.33871094 162.95972656 15.67742187 161.91945313 14.99609375 160.84765625 C11.23787761 154.6219965 8.15265482 148.40945375 5.6875 141.5625 C5.45732178 140.93206787 5.22714355 140.30163574 4.98999023 139.65209961 C4.24302155 137.45228095 3.6179071 135.23985251 3 133 C2.74416138 132.08245941 2.48832275 131.16491882 2.22473145 130.21957397 C-0.88534113 117.18336682 -0.37706944 104.04976534 -0.29296875 90.72265625 C-0.28736385 88.09850814 -0.28309798 85.47435686 -0.28010559 82.85020447 C-0.27085056 76.68824753 -0.24632739 70.52645383 -0.21605712 64.36456817 C-0.18230692 57.3389842 -0.16597576 50.31339165 -0.15097082 43.28774655 C-0.11977041 28.85841422 -0.06714004 14.4292094 0 0 Z " fill="#AAE7BF" transform="translate(285,503)"/>
<path d="M0 0 C1.71675432 0.00597423 3.43351068 0.0113893 5.15026855 0.01623535 C9.29944947 0.02913858 13.44852939 0.04953311 17.59765625 0.07421875 C17.69131801 9.49025189 17.76189962 18.90611891 17.80490494 28.32252026 C17.82557003 32.69736143 17.85348919 37.07187849 17.89941406 41.4465332 C18.30671806 81.31756068 13.45070205 114.97642104 -15.43359375 145.1640625 C-28.47989943 158.27525365 -45.56851336 167.06488971 -61.41113281 176.25756836 C-70.29465529 181.41340585 -79.13496309 186.63967221 -87.96484375 191.88671875 C-88.9552063 192.47487869 -88.9552063 192.47487869 -89.96557617 193.07492065 C-97.01173443 197.26003208 -104.04939751 201.4588546 -111.07421875 205.6796875 C-116.6680152 209.04051626 -122.27771824 212.37327664 -127.89770508 215.69018555 C-137.95284668 221.62483394 -147.97355813 227.61125784 -157.94549561 233.68475342 C-159.707066 234.7569846 -161.46976604 235.82733149 -163.23291016 236.89697266 C-163.8073587 237.24550293 -164.38180725 237.5940332 -164.97366333 237.953125 C-165.54309662 238.29859375 -166.11252991 238.6440625 -166.69921875 239 C-171.03122577 241.62872364 -175.35248348 244.27395156 -179.66796875 246.9296875 C-181.59985595 248.10353051 -183.53212563 249.27674434 -185.46484375 250.44921875 C-186.31409424 250.97862061 -187.16334473 251.50802246 -188.03833008 252.0534668 C-196.61379359 257.21507426 -206.2991237 260.50872175 -216.40234375 259.07421875 C-221.45071411 257.6574824 -226.03119476 255.98831807 -230.40234375 253.07421875 C-233.06053584 242.51111709 -232.80513786 231.0885073 -232.77734375 220.26171875 C-232.77679993 219.45806885 -232.7762561 218.65441895 -232.7756958 217.82641602 C-232.7076336 195.80039802 -229.32256109 174.99932039 -222.40234375 154.07421875 C-222.06662354 153.04458008 -222.06662354 153.04458008 -221.72412109 151.99414062 C-208.00840704 110.7343227 -180.21997296 72.0412892 -145.08203125 46.30517578 C-143.40526785 45.07636168 -141.74747222 43.82477367 -140.08984375 42.5703125 C-99.44267533 12.23740007 -50.14514674 -0.30757897 0 0 Z " fill="#AAE7BF" transform="translate(722.40234375,540.92578125)"/>
<path d="M0 0 C3.79635444 0.75927089 6.02555777 1.32313116 9.33349609 2.95849609 C10.16068649 3.3637854 10.98787689 3.76907471 11.84013367 4.18664551 C13.16836906 4.84835754 13.16836906 4.84835754 14.5234375 5.5234375 C15.91747551 6.20907776 15.91747551 6.20907776 17.3396759 6.90856934 C19.3251466 7.88586516 21.30932758 8.86578476 23.29232788 9.8480835 C26.39452356 11.38467046 29.50004124 12.91433175 32.60668945 14.44189453 C36.6466437 16.42837321 40.68570791 18.41664054 44.72412109 20.40625 C54.10809146 25.02477925 63.54333654 29.53241628 73 34 C74.29136759 34.61110948 75.58270672 35.22227911 76.87402344 35.83349609 C91.07518785 42.55285282 105.28287145 49.26116967 119.5625 55.8125 C120.40498291 56.20252197 121.24746582 56.59254395 122.11547852 56.99438477 C136.85766092 63.7077061 150.30875446 66.34729597 166 61 C182.97553491 54.43184583 199.21900644 45.61020718 215.5546875 37.61328125 C223.88929935 33.53334322 232.25038612 29.51336396 240.6328125 25.5324707 C246.90778552 22.5450431 253.1330132 19.46736433 259.31030273 16.2824707 C263.78734022 14 263.78734022 14 266 14 C266 45.35 266 76.7 266 109 C259.93334901 111.75756863 253.9895955 114.43371178 247.83764648 116.92651367 C221.4005071 127.77971028 197.28772805 143.32600329 175.625 161.890625 C175.03517334 162.39440674 174.44534668 162.89818848 173.83764648 163.41723633 C172.67914649 164.40939414 171.52479671 165.40642457 170.37524414 166.40893555 C167.91728244 168.52422426 166.11015193 169.96328269 163 171 C162.41734375 170.21238281 161.8346875 169.42476562 161.234375 168.61328125 C154.96991738 160.24725776 148.25257807 152.51927778 141 145 C140.07477539 144.03392822 140.07477539 144.03392822 139.13085938 143.04833984 C130.30018236 133.86769332 121.24422991 125.56803376 111 118 C110.11441406 117.319375 109.22882813 116.63875 108.31640625 115.9375 C95.20612693 106.03993753 80.85434908 97.95054434 66 91 C65.07815918 90.56010742 65.07815918 90.56010742 64.13769531 90.11132812 C43.64979428 80.39229214 22.1247288 75.10570665 0 70 C0 46.9 0 23.8 0 0 Z " fill="#67C198" transform="translate(363,410)"/>
<path d="M0 0 C0.66 0.33 1.32 0.66 2 1 C-7.57 10.57 -17.14 20.14 -27 30 C-27.66 29.67 -28.32 29.34 -29 29 C-22.7923465 22.16598867 -16.51789636 15.4153364 -10 8.875 C-9.46093018 8.33141846 -8.92186035 7.78783691 -8.36645508 7.2277832 C-5.71707778 4.5883957 -3.07077945 2.1406876 0 0 Z " fill="#A1E3B8" transform="translate(569,594)"/>
<path d="M0 0 C4.75 1.875 4.75 1.875 7 3 C7.33 2.34 7.66 1.68 8 1 C8.33 2.65 8.66 4.3 9 6 C7.68397477 5.38245741 6.37226444 4.75571258 5.0625 4.125 C4.33160156 3.77695312 3.60070312 3.42890625 2.84765625 3.0703125 C1 2 1 2 0 0 Z " fill="#A0E3B8" transform="translate(469,779)"/>
<path d="M0 0 C0.66 0.33 1.32 0.66 2 1 C0.71034824 2.37562854 -0.62689293 3.70766393 -2 5 C-2.66 5 -3.32 5 -4 5 C-4.33 5.99 -4.66 6.98 -5 8 C-5.33 7.34 -5.66 6.68 -6 6 C-2.25 1.125 -2.25 1.125 0 0 Z " fill="#58BA8E" transform="translate(667,432)"/>
</svg>
