<?xml version="1.0" encoding="UTF-8"?>
<svg version="1.1" xmlns="http://www.w3.org/2000/svg" width="1024" height="1024">
<!-- <path d="M0 0 C337.92 0 675.84 0 1024 0 C1024 337.92 1024 675.84 1024 1024 C686.08 1024 348.16 1024 0 1024 C0 686.08 0 348.16 0 0 Z " fill="#FEFEFE" transform="translate(0,0)"/> -->
<path d="M0 0 C10.89 0 21.78 0 33 0 C37.49988146 8.99976292 37.49988146 8.99976292 39.0871582 13.38012695 C39.44465652 14.35927567 39.80215485 15.33842438 40.17048645 16.34724426 C40.54348373 17.38378647 40.91648102 18.42032867 41.30078125 19.48828125 C41.89997627 21.13500069 41.89997627 21.13500069 42.51127625 22.81498718 C43.78285899 26.31254076 45.04785507 29.81243264 46.3125 33.3125 C47.14994012 35.62060621 47.98782695 37.9285504 48.82617188 40.23632812 C50.05654543 43.62377133 51.28649568 47.01136222 52.51443481 50.39968872 C55.97453413 59.94614448 59.47640222 69.47682133 63 79 C67.14902206 69.45097018 70.72914968 59.72260976 74.27557373 49.9380188 C75.92516821 45.3875042 77.58412515 40.84040326 79.2421875 36.29296875 C79.56671906 35.40226181 79.89125061 34.51155487 80.22561646 33.59385681 C82.90800676 26.23719674 85.62426993 18.89392437 88.375 11.5625 C88.73754883 10.5940918 89.10009766 9.62568359 89.47363281 8.62792969 C91.86840343 2.26319314 91.86840343 2.26319314 93 0 C104.22 0 115.44 0 127 0 C127.02254717 16.01993851 127.04097926 32.03986354 127.05181217 48.0598135 C127.05697509 55.4976451 127.06401771 62.93546617 127.07543945 70.37329102 C127.08538641 76.85381342 127.09185346 83.33432819 127.09408849 89.81485802 C127.09539558 93.24830542 127.0984813 96.681731 127.10573006 100.11517143 C127.11374416 103.94193821 127.11399113 107.76868335 127.11352539 111.59545898 C127.11712067 112.74200455 127.12071594 113.88855011 127.12442017 115.06983948 C127.1230455 116.10615509 127.12167084 117.1424707 127.12025452 118.21018982 C127.12117631 119.11631232 127.1220981 120.02243483 127.12304783 120.95601559 C127 123 127 123 126 124 C118.41 124 110.82 124 103 124 C102.67 95.95 102.34 67.9 102 39 C99.586875 45.331875 97.17375 51.66375 94.6875 58.1875 C93.89794922 60.25757324 93.10839844 62.32764648 92.29492188 64.46044922 C89.04236848 72.99007074 85.79633469 81.52178699 82.59375 90.0703125 C82.09162146 91.40733376 81.58942674 92.74433016 81.0871582 94.08129883 C80.17538159 96.51190794 79.26746945 98.94397133 78.36401367 101.37768555 C77.95900635 102.45574463 77.55399902 103.53380371 77.13671875 104.64453125 C76.79342529 105.56596924 76.45013184 106.48740723 76.09643555 107.43676758 C74.91915211 110.18900513 73.78866495 112.59172865 72 115 C70.00708008 115.56762695 70.00708008 115.56762695 67.76953125 115.48828125 C67.04612549 115.47579346 66.32271973 115.46330566 65.57739258 115.45043945 C64.20877075 115.38215942 64.20877075 115.38215942 62.8125 115.3125 C61.24054048 115.25503378 59.66851308 115.19940548 58.09643555 115.14526367 C56.73095703 115.09684245 55.36547852 115.04842122 54 115 C47.35899805 98.69719651 41.15669044 82.24085818 35 65.75 C31.7 56.9225 28.4 48.095 25 39 C24.67 67.05 24.34 95.1 24 124 C16.08 124 8.16 124 0 124 C0 83.08 0 42.16 0 0 Z " fill="#85D7A7" transform="translate(194,526)"/>
<path d="M0 0 C3.99363442 3.15248431 7.08567803 5.85270592 8 11 C8.680625 10.29875 9.36125 9.5975 10.0625 8.875 C11.03809486 7.91303077 12.01757704 6.95499491 13 6 C13.50789062 5.49597656 14.01578125 4.99195313 14.5390625 4.47265625 C21.1695849 -1.70221414 27.94714356 -4.21142432 37 -4.4375 C46.99628359 -4.08010308 53.79989453 -2.23544181 61.08984375 4.8359375 C70.0876233 15.02974092 69.29824427 29.08060667 69.23046875 41.9140625 C69.229274 43.42052165 69.22882441 44.92698156 69.2290802 46.43344116 C69.22752801 49.56488822 69.21932866 52.69621889 69.20581055 55.82763672 C69.18867475 59.8482907 69.18500106 63.86881915 69.18575573 67.88950539 C69.18548471 70.9880392 69.18001697 74.08654538 69.17275429 77.18507004 C69.16956815 78.6690996 69.16760034 80.15313228 69.16686058 81.63716507 C69.16470473 83.69778117 69.1559815 85.75826068 69.14526367 87.81884766 C69.14145187 88.99146149 69.13764008 90.16407532 69.13371277 91.3722229 C69 94 69 94 68 95 C66.37742456 95.0991657 64.75060169 95.13079777 63.125 95.1328125 C62.14015625 95.13410156 61.1553125 95.13539063 60.140625 95.13671875 C59.10421875 95.13285156 58.0678125 95.12898438 57 95.125 C55.44539062 95.13080078 55.44539062 95.13080078 53.859375 95.13671875 C52.87453125 95.13542969 51.8896875 95.13414062 50.875 95.1328125 C49.96492187 95.13168457 49.05484375 95.13055664 48.1171875 95.12939453 C46 95 46 95 45 94 C44.89723594 91.98171626 44.86427327 89.95985382 44.8581543 87.93896484 C44.84760262 85.99091446 44.84760262 85.99091446 44.83683777 84.00350952 C44.83502188 83.30449902 44.83320599 82.60548851 44.83133507 81.88529587 C44.82417927 79.69887403 44.8085169 77.5126779 44.78999329 75.32632446 C44.73750176 69.10804463 44.68960314 62.88988301 44.67407227 56.67138672 C44.6639558 52.8704022 44.63453211 49.06997742 44.59275246 45.26921463 C44.58048139 43.8236783 44.57531407 42.37806272 44.57755089 40.93247604 C44.76046572 30.20612601 44.76046572 30.20612601 40 21 C35.27967567 18.23905558 31.42845667 17.40780473 26 18 C20.49479113 20.05096017 17.44906489 22.98592557 14.90956116 28.26812744 C13.8589661 31.42359618 13.72803014 34.01050619 13.69702148 37.33496094 C13.68037949 38.59266296 13.66373749 39.85036499 13.64659119 41.1461792 C13.63803251 42.50891076 13.62953479 43.87164271 13.62109375 45.234375 C13.60491049 46.63732044 13.58772962 48.04025469 13.56959534 49.44317627 C13.52402607 53.12521206 13.48915157 56.80726286 13.45739746 60.48944092 C13.40539732 66.39719965 13.34051646 72.30479514 13.26918221 78.21234894 C13.24630185 80.27808658 13.23006702 82.34380313 13.21446228 84.40960693 C13.20097244 85.65470032 13.1874826 86.8997937 13.17358398 88.18261719 C13.15931618 89.83544708 13.15931618 89.83544708 13.14476013 91.52166748 C13 94 13 94 12 95 C10.36527118 95.08700342 8.72685945 95.10701063 7.08984375 95.09765625 C6.10048828 95.09443359 5.11113281 95.09121094 4.09179688 95.08789062 C3.05087891 95.07951172 2.00996094 95.07113281 0.9375 95.0625 C-0.10728516 95.05798828 -1.15207031 95.05347656 -2.22851562 95.04882812 C-4.8190666 95.03699913 -7.40950559 95.02051689 -10 95 C-10.00586624 94.21596802 -10.01173248 93.43193604 -10.01777649 92.62414551 C-10.07585236 85.20949023 -10.14801328 77.79516528 -10.23571491 70.38080597 C-10.28030639 66.56964767 -10.31958655 62.75859349 -10.34643555 58.94726562 C-10.37258145 55.26418114 -10.41306173 51.58149981 -10.46318626 47.89866638 C-10.47977917 46.49862205 -10.49134039 45.09850811 -10.49761391 43.69837952 C-10.24072352 31.73660906 -10.24072352 31.73660906 -15.4667511 21.37023926 C-19.08363907 18.13788613 -23.17206536 17.53320222 -27.9453125 17.6953125 C-31.63912135 18.24306362 -34.17237218 19.60113968 -37 22 C-41.84890589 29.23703438 -41.58782326 36.2608618 -41.57421875 44.74609375 C-41.58667973 46.16717743 -41.60101832 47.58824576 -41.61714172 49.0092926 C-41.65496659 52.72589354 -41.67032371 56.44222853 -41.67993164 60.15899658 C-41.69977111 66.13179676 -41.75640959 72.10439665 -41.80869484 78.0769825 C-41.82406481 80.16270336 -41.83123315 82.24832364 -41.83683777 84.33409119 C-41.84387222 85.58952225 -41.85090668 86.84495331 -41.8581543 88.13842773 C-41.86337349 89.80433205 -41.86337349 89.80433205 -41.86869812 91.50389099 C-42 94 -42 94 -43 95 C-44.62257544 95.0991657 -46.24939831 95.13079777 -47.875 95.1328125 C-48.85984375 95.13410156 -49.8446875 95.13539063 -50.859375 95.13671875 C-51.89578125 95.13285156 -52.9321875 95.12898438 -54 95.125 C-55.55460937 95.13080078 -55.55460937 95.13080078 -57.140625 95.13671875 C-58.12546875 95.13542969 -59.1103125 95.13414062 -60.125 95.1328125 C-61.03507812 95.13168457 -61.94515625 95.13055664 -62.8828125 95.12939453 C-65 95 -65 95 -66 94 C-66.10059769 91.05290585 -66.1361505 88.12920859 -66.12939453 85.18164062 C-66.13114685 84.25651169 -66.13289917 83.33138275 -66.13470459 82.3782196 C-66.13912467 79.30421095 -66.13618457 76.2302593 -66.1328125 73.15625 C-66.13348549 71.03015125 -66.13445548 68.90405258 -66.13571167 66.7779541 C-66.13718886 62.3156664 -66.13503342 57.85339867 -66.13037109 53.39111328 C-66.1246738 47.65729431 -66.12795269 41.92352215 -66.13394356 36.1897049 C-66.13754861 31.79754277 -66.13641084 27.40539183 -66.13381577 23.01322937 C-66.13314634 20.89841201 -66.13397545 18.78359366 -66.13629532 16.66877747 C-66.13882093 13.71861054 -66.13498254 10.76852054 -66.12939453 7.81835938 C-66.13141876 6.93520554 -66.13344299 6.0520517 -66.13552856 5.14213562 C-66.11426234 -0.88573766 -66.11426234 -0.88573766 -65 -2 C-63.36527118 -2.08700342 -61.72685945 -2.10701063 -60.08984375 -2.09765625 C-59.10048828 -2.09443359 -58.11113281 -2.09121094 -57.09179688 -2.08789062 C-56.05087891 -2.07951172 -55.00996094 -2.07113281 -53.9375 -2.0625 C-52.37032227 -2.05573242 -52.37032227 -2.05573242 -50.77148438 -2.04882812 C-48.1809334 -2.03699913 -45.59049441 -2.02051689 -43 -2 C-42.67 0.97 -42.34 3.94 -42 7 C-41.49210937 6.52949219 -40.98421875 6.05898438 -40.4609375 5.57421875 C-29.17984626 -4.6294649 -13.81856887 -8.43375288 0 0 Z " fill="#85D6A6" transform="translate(551,401)"/>
<path d="M0 0 C27.39 0 54.78 0 83 0 C83 7.59 83 15.18 83 23 C82 24 82 24 79.79173279 24.12025452 C78.81688431 24.11803391 77.84203583 24.11581329 76.83764648 24.11352539 C75.73658066 24.11344986 74.63551483 24.11337433 73.50108337 24.11329651 C72.3031868 24.10813522 71.10529022 24.10297394 69.87109375 24.09765625 C68.65172623 24.0962413 67.4323587 24.09482635 66.17604065 24.09336853 C62.2631693 24.08774967 58.35035419 24.07519396 54.4375 24.0625 C51.79231853 24.05748743 49.14713617 24.0529241 46.50195312 24.04882812 C40.00126274 24.03862296 33.50069467 24.01905121 27 24 C27 34.56 27 45.12 27 56 C30.52558594 55.98839844 34.05117187 55.97679687 37.68359375 55.96484375 C41.08243723 55.95705437 44.48127974 55.95097693 47.88012695 55.94506836 C50.24992312 55.94002659 52.61971615 55.93319335 54.98950195 55.92456055 C58.38754039 55.9124881 61.78553785 55.90677029 65.18359375 55.90234375 C66.25024765 55.89718246 67.31690155 55.89202118 68.4158783 55.88670349 C69.88729027 55.88659019 69.88729027 55.88659019 71.38842773 55.88647461 C72.69081642 55.88314369 72.69081642 55.88314369 74.01951599 55.87974548 C76 56 76 56 77 57 C77.09880797 58.47652664 77.13079245 59.95767236 77.1328125 61.4375 C77.13410156 62.33210938 77.13539063 63.22671875 77.13671875 64.1484375 C77.13285156 65.08945312 77.12898438 66.03046875 77.125 67 C77.12886719 67.94101562 77.13273437 68.88203125 77.13671875 69.8515625 C77.13542969 70.74617188 77.13414062 71.64078125 77.1328125 72.5625 C77.13168457 73.38878906 77.13055664 74.21507812 77.12939453 75.06640625 C77 77 77 77 76 78 C74.4651703 78.09319449 72.92607918 78.117458 71.38842773 78.11352539 C70.40748642 78.11344986 69.4265451 78.11337433 68.4158783 78.11329651 C67.3492244 78.10813522 66.2825705 78.10297394 65.18359375 78.09765625 C63.55430687 78.09553383 63.55430687 78.09553383 61.8921051 78.09336853 C58.40720925 78.08775048 54.92237658 78.07519492 51.4375 78.0625 C49.08138113 78.05748733 46.72526126 78.05292402 44.36914062 78.04882812 C38.57938289 78.03862411 32.78976255 78.01905224 27 78 C27 88.56 27 99.12 27 110 C46.14 110 65.28 110 85 110 C85 117.59 85 125.18 85 133 C56.95 133 28.9 133 0 133 C0 89.11 0 45.22 0 0 Z " fill="#86D7A7" transform="translate(194,363)"/>
<path d="M0 0 C10.00417946 7.1765223 14.48865609 15.84096826 18.3125 27.3125 C19.55491385 44.36355903 19.51608676 60.50468969 8.3125 74.3125 C7.81105469 74.93769531 7.30960938 75.56289063 6.79296875 76.20703125 C0.59819297 83.12528449 -8.57542248 87.86670154 -17.86865234 88.44921875 C-32.39036407 89.03584063 -44.48623721 88.57267309 -55.6875 78.3125 C-63.417526 71.05838978 -69.1221523 61.53538485 -69.86450195 50.73803711 C-69.93137546 47.57526668 -69.97242857 44.41336165 -70 41.25 C-70.02900391 40.16783203 -70.05800781 39.08566406 -70.08789062 37.97070312 C-70.18254285 25.83337539 -66.09992007 14.40209374 -57.875 5.30859375 C-41.98840776 -9.52102763 -18.23421532 -11.07628308 0 0 Z " fill="#85D7A6" transform="translate(658.6875,563.6875)"/>
<path d="M0 0 C6.23461634 4.63306352 10.61388585 9.78810991 13.0625 17.25 C13.32159177 19.92666791 13.44502082 22.35546429 13.40307617 25.02124023 C13.40373329 26.13468056 13.40373329 26.13468056 13.40440369 27.27061462 C13.40233 29.70021781 13.37906742 32.12911259 13.35546875 34.55859375 C13.34986772 36.25252404 13.34560002 37.94645922 13.34260559 39.64039612 C13.33119672 44.08085747 13.30176401 48.52102056 13.26849365 52.96136475 C13.23770706 57.49959276 13.22408196 62.03786935 13.20898438 66.57617188 C13.17689019 75.46757836 13.12574216 84.3587643 13.0625 93.25 C9.75001813 93.27888146 6.43756833 93.29675799 3.125 93.3125 C2.17947266 93.32087891 1.23394531 93.32925781 0.25976562 93.33789062 C-1.08891602 93.34272461 -1.08891602 93.34272461 -2.46484375 93.34765625 C-3.71382446 93.35551147 -3.71382446 93.35551147 -4.98803711 93.36352539 C-6.9375 93.25 -6.9375 93.25 -7.9375 92.25 C-8.30510731 89.92182036 -8.63991581 87.5881615 -8.9375 85.25 C-9.783125 85.8275 -10.62875 86.405 -11.5 87 C-21.44154398 93.56560984 -29.89292911 96.4311262 -41.9375 95.25 C-50.45952671 93.44613851 -58.4869801 91.15461142 -63.65234375 83.8125 C-69.12981209 74.94544538 -69.64037759 67.44172511 -68.9375 57.25 C-67.37649422 50.94015135 -63.2374674 46.79389038 -57.9375 43.25 C-50.5969571 38.85758589 -42.24581438 37.68498939 -33.9375 36.25 C-33.00035156 36.05921875 -32.06320312 35.8684375 -31.09765625 35.671875 C-26.74214318 35.09042208 -22.45058399 35.14454436 -18.0625 35.1875 C-17.18335938 35.19201172 -16.30421875 35.19652344 -15.3984375 35.20117188 C-13.24476197 35.21287663 -11.09112183 35.23080931 -8.9375 35.25 C-9.80549887 24.52647448 -9.80549887 24.52647448 -15.9375 16.25 C-19.98791832 13.84164316 -24.33017884 13.57968992 -28.9375 14.25 C-35.91009195 16.36329012 -37.04846201 18.44418351 -40.9375 25.25 C-48.5275 25.25 -56.1175 25.25 -63.9375 25.25 C-63.9375 16.08160471 -60.30685947 10.91931211 -54.13671875 4.29296875 C-40.31174052 -8.54977301 -15.797879 -9.86378422 0 0 Z " fill="#85D7A6" transform="translate(453.9375,402.75)"/>
<path d="M0 0 C10.14571607 7.45830914 14.42022946 17.277704 17.1875 29.3046875 C17.1875 35.5746875 17.1875 41.8446875 17.1875 48.3046875 C-3.2725 48.3046875 -23.7325 48.3046875 -44.8125 48.3046875 C-41.53452666 60.66483562 -41.53452666 60.66483562 -32.6875 68.2421875 C-26.5360586 70.4479382 -19.42026023 70.18946329 -13.3125 68.1171875 C-10.66076684 66.46660988 -10.66076684 66.46660988 -9.390625 63.7109375 C-5.78882498 60.34925748 -3.07121277 60.78998191 1.71484375 60.86523438 C2.77832031 60.90712891 3.84179688 60.94902344 4.9375 60.9921875 C6.01644531 61.01474609 7.09539062 61.03730469 8.20703125 61.06054688 C10.8685935 61.119431 13.52734228 61.20161749 16.1875 61.3046875 C15.05413034 70.28045411 10.29239659 77.17781388 3.33984375 82.8359375 C-7.89546273 90.5028617 -21.78584981 90.87554455 -34.92041016 89.00439453 C-45.43696941 86.82443704 -54.75508182 81.23233581 -60.8125 72.3046875 C-68.78128328 58.77989144 -70.50166227 42.05489819 -66.90234375 26.75 C-64.87449976 19.70613599 -61.81523344 13.66475905 -56.8125 8.3046875 C-56.28914063 7.69238281 -55.76578125 7.08007812 -55.2265625 6.44921875 C-41.77400373 -8.36122741 -16.73445576 -10.08715805 0 0 Z " fill="#85D7A6" transform="translate(402.8125,562.6953125)"/>
<path d="M0 0 C6.72475949 5.67868579 10.05575834 12.86685654 11.8125 21.375 C12.20578034 26.59018467 12.16385652 31.78314864 12.10546875 37.0078125 C12.0998614 38.49567229 12.0955967 39.98353768 12.09260559 41.47140503 C12.08124625 45.35453046 12.05185801 49.23730992 12.01849365 53.12030029 C11.98759854 57.09577761 11.97405906 61.07131178 11.95898438 65.046875 C11.92697785 72.82309135 11.87428507 80.59895278 11.8125 88.375 C4.2225 88.375 -3.3675 88.375 -11.1875 88.375 C-11.20208252 86.65990234 -11.21666504 84.94480469 -11.23168945 83.17773438 C-11.2835138 77.48589099 -11.34884544 71.79430771 -11.42321491 66.10271454 C-11.46778042 62.65476355 -11.50706587 59.20692696 -11.53393555 55.75878906 C-11.56512537 51.78685767 -11.61990877 47.81541378 -11.67578125 43.84375 C-11.68217117 42.61636108 -11.6885611 41.38897217 -11.69514465 40.12438965 C-11.87404222 29.02645003 -11.87404222 29.02645003 -17.6875 19.9375 C-22.88405305 16.68965434 -28.2267308 16.75248762 -34.1875 17.375 C-39.35478587 19.95864294 -42.23620547 22.81798211 -44.23974609 28.20336914 C-45.77395372 33.78750653 -45.54569616 39.55906067 -45.6015625 45.30859375 C-45.62092865 46.54166763 -45.6402948 47.77474152 -45.6602478 49.04518127 C-45.71982952 52.96755139 -45.76634388 56.88995119 -45.8125 60.8125 C-45.84963969 63.47854703 -45.88975221 66.14453905 -45.9296875 68.81054688 C-46.02551372 75.33193264 -46.10962419 81.85337617 -46.1875 88.375 C-53.7775 88.375 -61.3675 88.375 -69.1875 88.375 C-69.1875 58.345 -69.1875 28.315 -69.1875 -2.625 C-61.9275 -2.625 -54.6675 -2.625 -47.1875 -2.625 C-46.8575 0.675 -46.5275 3.975 -46.1875 7.375 C-45.67960937 6.83230469 -45.17171875 6.28960938 -44.6484375 5.73046875 C-32.38584666 -7.0143588 -15.4737224 -7.88856436 0 0 Z " fill="#84D6A6" transform="translate(502.1875,561.625)"/>
<path d="M0 0 C8.86498198 -1.30017196 18.28701794 -2.58560231 27 0 C32.95246182 4.65692601 35.9663392 11.64621358 38.88623047 18.45361328 C40.35070098 21.80179992 42.12654031 24.86597578 44 28 C48.72113822 21.18721827 53.01654875 14.12345712 57.30395508 7.03369141 C57.76697021 6.26976074 58.22998535 5.50583008 58.70703125 4.71875 C59.1244458 4.02716797 59.54186035 3.33558594 59.97192383 2.62304688 C61 1 61 1 62 0 C63.92667507 -0.08748207 65.85651861 -0.10697334 67.78515625 -0.09765625 C68.95498047 -0.09443359 70.12480469 -0.09121094 71.33007812 -0.08789062 C72.56177734 -0.07951172 73.79347656 -0.07113281 75.0625 -0.0625 C76.91584961 -0.05573242 76.91584961 -0.05573242 78.80664062 -0.04882812 C81.87114117 -0.03699608 84.93554721 -0.02051173 88 0 C86.69303866 3.56100752 85.13466994 6.51517133 82.98046875 9.6328125 C82.375979 10.51308105 81.77148926 11.39334961 81.14868164 12.30029297 C80.17789673 13.69852295 80.17789673 13.69852295 79.1875 15.125 C78.19447876 16.56770264 78.19447876 16.56770264 77.18139648 18.03955078 C75.8079751 20.03478457 74.4327095 22.02875007 73.05566406 24.02148438 C69.87586507 28.62879408 66.72027786 33.25258469 63.5625 37.875 C62.48067855 39.45587276 61.39866838 41.0366164 60.31640625 42.6171875 C59.86724854 43.27315918 59.41809082 43.92913086 58.95532227 44.60498047 C58.64006592 45.06533691 58.32480957 45.52569336 58 46 C59.91687667 50.00234741 62.40956536 53.47504924 65 57.0625 C70.29848473 64.48861026 75.4398951 72.01474873 80.51513672 79.5944519 C81.33864613 80.82354946 82.16384409 82.05151735 82.99072266 83.27835083 C84.16004132 85.01446163 85.32308557 86.7546052 86.484375 88.49609375 C87.16209961 89.50857178 87.83982422 90.5210498 88.53808594 91.56420898 C90 94 90 94 90 96 C67.11128809 98.68009184 67.11128809 98.68009184 60.78662109 94.55712891 C57.22262232 90.70654683 55.13048879 86.11201713 53.07080078 81.33154297 C51.36487778 77.61709593 49.09265933 74.31824227 46.8125 70.9375 C46.06596724 69.78190819 45.32214846 68.62455497 44.58203125 67.46484375 C44.05996094 66.65144531 43.53789062 65.83804688 43 65 C37.44222788 72.43645566 32.72589488 80.32472867 28.00097656 88.30566406 C27.2463916 89.57941895 27.2463916 89.57941895 26.4765625 90.87890625 C26.02361816 91.6479126 25.57067383 92.41691895 25.10400391 93.20922852 C24 95 24 95 23 96 C21.14630389 96.08737645 19.28932459 96.10698153 17.43359375 96.09765625 C16.30888672 96.09443359 15.18417969 96.09121094 14.02539062 96.08789062 C12.84138672 96.07951172 11.65738281 96.07113281 10.4375 96.0625 C9.24962891 96.05798828 8.06175781 96.05347656 6.83789062 96.04882812 C3.89187774 96.03699675 0.94596319 96.02051287 -2 96 C-0.58604344 92.10176648 1.25222168 88.84858349 3.52734375 85.38671875 C4.58501953 83.77253052 4.58501953 83.77253052 5.6640625 82.12573242 C6.42182448 80.97962154 7.17963792 79.83354469 7.9375 78.6875 C8.70732198 77.51492064 9.47685183 76.34214943 10.24609375 75.16918945 C14.98634715 67.95832783 19.79374293 60.79447396 24.86303711 53.80932617 C28.13780985 49.30431863 28.13780985 49.30431863 29 44 C27.47880972 41.40412266 25.94985531 39.18080752 24.125 36.8125 C23.02401803 35.32241869 21.92799254 33.82866727 20.8359375 32.33203125 C20.22975586 31.5013916 19.62357422 30.67075195 18.99902344 29.81494141 C15.50291235 24.89186364 12.20680126 19.83785207 8.91009521 14.77987671 C7.75563247 13.00864162 6.59689373 11.24025422 5.43798828 9.47192383 C0 1.13016142 0 1.13016142 0 0 Z " fill="#85D6A6" transform="translate(291,400)"/>
<path d="M0 0 C7.59 0 15.18 0 23 0 C23 8.25 23 16.5 23 25 C29.6 25 36.2 25 43 25 C43 30.94 43 36.88 43 43 C36.4 43 29.8 43 23 43 C23.06893984 49.868846 23.15693941 56.73708698 23.26245117 63.60546875 C23.29566333 65.94101237 23.32370676 68.27663553 23.34643555 70.61230469 C23.38004901 73.97365145 23.43237003 77.33427169 23.48828125 80.6953125 C23.49786613 82.25658371 23.49786613 82.25658371 23.50764465 83.84939575 C23.61588842 89.21157876 23.74929298 93.48806924 27 98 C32.83576771 99.50925027 38.07667267 98.83296791 44 98 C44 103.61 44 109.22 44 115 C37.30143482 117.87081365 34.00940607 118.49461046 27.125 118.4375 C26.27808594 118.45748047 25.43117188 118.47746094 24.55859375 118.49804688 C16.90478955 118.49218638 10.71435377 116.59633839 5.125 111.25 C-0.17772168 103.13995507 -0.41462463 96.22167151 -0.29296875 86.75 C-0.28872391 85.49614502 -0.28447906 84.24229004 -0.28010559 82.95043945 C-0.26622169 79.64264213 -0.23934353 76.33529618 -0.20599365 73.02764893 C-0.17511574 69.64218627 -0.1615627 66.25665712 -0.14648438 62.87109375 C-0.11350252 56.24719872 -0.06176448 49.62368665 0 43 C-4.62 43 -9.24 43 -14 43 C-14 37.06 -14 31.12 -14 25 C-9.38 25 -4.76 25 0 25 C0 16.75 0 8.5 0 0 Z " fill="#84D6A6" transform="translate(537,534)"/>
<path d="M0 0 C1 1 1 1 1.11352539 3.22485352 C1.10828857 4.18319092 1.10305176 5.14152832 1.09765625 6.12890625 C1.09443359 7.16337891 1.09121094 8.19785156 1.08789062 9.26367188 C1.07532227 10.8965918 1.07532227 10.8965918 1.0625 12.5625 C1.05798828 13.65498047 1.05347656 14.74746094 1.04882812 15.87304688 C1.03699826 18.58208495 1.02051543 21.29101599 1 24 C0.0821875 23.95359375 -0.835625 23.9071875 -1.78125 23.859375 C-12.09972538 23.44474408 -12.09972538 23.44474408 -21 28 C-31.22426003 39.30320204 -28.26618091 58.5081497 -28.5625 72.8125 C-28.60579575 74.77669988 -28.64941312 76.74089269 -28.69335938 78.70507812 C-28.79987124 83.46997686 -28.89979533 88.23494797 -29 93 C-36.59 93 -44.18 93 -52 93 C-52 62.97 -52 32.94 -52 2 C-44.41 2 -36.82 2 -29 2 C-28.67 5.96 -28.34 9.92 -28 14 C-27.030625 12.618125 -26.06125 11.23625 -25.0625 9.8125 C-18.15874413 1.05853755 -11.04098471 -1.25465735 0 0 Z " fill="#85D6A6" transform="translate(742,557)"/>
<path d="M0 0 C5.35421973 3.06109936 8.8989532 7.41317732 10.6875 13.375 C12.58437268 23.13831526 13.20424274 34.24675768 8.6875 43.375 C5.73483178 47.61143701 2.65141851 51.56514653 -2.3125 53.375 C-8.40265565 54.00602818 -14.24850793 54.31647007 -19.875 51.75 C-20.679375 50.96625 -21.48375 50.1825 -22.3125 49.375 C-23.199375 48.529375 -24.08625 47.68375 -25 46.8125 C-31.12329451 38.89172227 -31.11822372 27.90019965 -30.3125 18.375 C-29.04545852 11.07723396 -26.73160549 5.53150392 -20.5625 1.125 C-14.01777358 -2.67516373 -6.93217351 -3.10707588 0 0 Z " fill="#FCFDFD" transform="translate(642.3125,578.625)"/>
<path d="M0 0 C0.34514786 6.3532772 0.3228125 11.35121875 -3 17 C-6.7933412 20.9952277 -10.72825634 23.76461451 -16.2421875 24.3359375 C-27.26111389 24.45442058 -27.26111389 24.45442058 -30.75 22.25 C-34.33333333 18.66666667 -34.33333333 18.66666667 -35 16 C-34.92729088 11.41932522 -34.66440037 9.03096609 -32.1875 5.1875 C-22.72234249 -1.30819633 -10.98164467 -0.35130854 0 0 Z " fill="#FCFCFC" transform="translate(444,454)"/>
<path d="M0 0 C5.01021975 3.75766481 8.03847603 7.76317248 9.5 13.875 C9.5 15.195 9.5 16.515 9.5 17.875 C-3.7 17.875 -16.9 17.875 -30.5 17.875 C-29.20595114 10.11070683 -26.4735702 5.36308935 -20.4375 0.3125 C-14.28508814 -2.68130756 -6.33033194 -2.03474955 0 0 Z " fill="#FCFDFD" transform="translate(388.5,577.125)"/>
<path d="M0 0 C3.84762566 3.4201117 6.60634022 7.46774256 9 12 C9 12.66 9 13.32 9 14 C0.09 14 -8.82 14 -18 14 C-18 13.01 -18 12.02 -18 11 C-10.08 11 -2.16 11 6 11 C4.02 8.03 2.04 5.06 0 2 C0 1.34 0 0.68 0 0 Z " fill="#74D29B" transform="translate(372,482)"/>
<path d="M0 0 C0.33 0.66 0.66 1.32 1 2 C8.59 2 16.18 2 24 2 C23.67 2.99 23.34 3.98 23 5 C14.75 5 6.5 5 -2 5 C-1.34 3.35 -0.68 1.7 0 0 Z " fill="#71D19A" transform="translate(291,491)"/>
<path d="M0 0 C1.55955444 3.11910889 0.62673502 5.63842127 0 9 C-1.0625 11.9375 -1.0625 11.9375 -2 14 C-2.33 14 -2.66 14 -3 14 C-3.34615998 8.34605369 -2.43425238 4.96993194 0 0 Z " fill="#6ED197" transform="translate(339,583)"/>
<path d="M0 0 C-0.33 0.99 -0.66 1.98 -1 3 C-6.28 3 -11.56 3 -17 3 C-17 2.67 -17 2.34 -17 2 C-16.16855469 1.93941406 -15.33710938 1.87882813 -14.48046875 1.81640625 C-12.85044922 1.69072266 -12.85044922 1.69072266 -11.1875 1.5625 C-10.10855469 1.48128906 -9.02960938 1.40007813 -7.91796875 1.31640625 C-5.15209182 1.01649188 -2.75597229 0 0 0 Z " fill="#66CE91" transform="translate(391,631)"/>
</svg>
