<svg width="457" height="561" viewBox="0 0 457 561" fill="none" xmlns="http://www.w3.org/2000/svg">
<path d="M248.689 6.03078C249.996 6.6248 251.305 7.21646 252.614 7.80593C255.315 9.02618 258.009 10.2595 260.699 11.5044C264.498 13.2608 268.314 14.9771 272.138 16.6792C276.986 18.8391 281.83 21.0074 286.669 23.187C293.168 26.1119 299.676 29.0142 306.189 31.9058C307.793 32.6182 307.793 32.6182 309.429 33.345C314.823 35.7403 320.218 38.1342 325.612 40.5274C346.872 49.959 368.119 59.417 389.323 68.9741C399.768 73.6821 410.219 78.3775 420.689 83.0308C421.766 83.5103 422.844 83.9898 423.954 84.4839C428.527 86.5154 433.106 88.5308 437.712 90.4878C438.46 90.8073 439.208 91.1267 439.978 91.4558C441.866 92.2589 443.758 93.0517 445.65 93.8433C449.352 95.6703 452.798 97.561 454.689 101.343C455.248 107.028 455.248 107.028 454.689 109.343C450.745 114.024 446.326 116.327 440.845 118.918C439.999 119.327 439.152 119.737 438.279 120.16C435.587 121.46 432.888 122.745 430.189 124.031C428.375 124.906 426.561 125.781 424.748 126.658C421.42 128.261 418.092 129.863 414.757 131.451C414.091 131.769 413.424 132.087 412.737 132.415C410.416 133.467 408.061 134.412 405.689 135.343C405.562 143.227 405.475 151.11 405.414 158.994C405.392 161.677 405.357 164.358 405.312 167.04C405.251 170.895 405.223 174.75 405.201 178.605C405.175 179.804 405.149 181.003 405.122 182.239C405.009 188.862 405.009 188.862 408.11 194.507C408.961 195.113 409.812 195.719 410.689 196.343C413.937 200.288 414.809 203.303 414.882 208.378C414.906 209.915 414.906 209.915 414.931 211.483C414.975 216.159 415.016 220.835 415.039 225.512C415.056 227.979 415.083 230.447 415.121 232.914C415.176 236.471 415.198 240.028 415.212 243.585C415.235 244.688 415.258 245.79 415.281 246.926C415.268 251.697 415.254 254.48 412.6 258.537C409.014 260.762 406.803 260.988 402.595 261.007C401.926 261.012 401.257 261.017 400.568 261.022C399.159 261.025 397.75 261.016 396.342 260.995C394.194 260.968 392.051 260.995 389.904 261.027C388.53 261.024 387.156 261.017 385.783 261.007C384.542 261.002 383.301 260.996 382.023 260.99C378.689 260.343 378.689 260.343 375.785 258.512C372.655 253.78 372.991 249.539 373.06 243.98C373.058 242.874 373.055 241.768 373.053 240.629C373.054 238.291 373.067 235.953 373.092 233.616C373.126 230.054 373.113 226.494 373.093 222.931C373.1 220.656 373.11 218.38 373.123 216.105C373.118 215.046 373.113 213.988 373.108 212.897C373.206 206.625 373.796 201.446 377.689 196.343C378.745 195.566 379.801 194.789 380.889 193.989C383.956 191.091 384.128 190.615 384.462 186.645C384.503 184.767 384.511 182.889 384.494 181.011C384.507 180.019 384.521 179.028 384.535 178.006C384.572 174.847 384.569 171.69 384.564 168.531C384.582 166.386 384.603 164.24 384.626 162.095C384.678 156.844 384.697 151.594 384.689 146.343C373.3 151.422 361.96 156.564 350.751 162.031C349.518 162.63 348.285 163.228 347.051 163.826C344.514 165.057 341.978 166.289 339.441 167.521C333.447 170.434 327.442 173.324 321.439 176.218C312.414 180.573 303.394 184.938 294.378 189.312C291.598 190.66 288.818 192.007 286.037 193.353C279.86 196.344 273.685 199.34 267.527 202.369C264.895 203.663 262.26 204.951 259.625 206.238C257.814 207.125 256.007 208.02 254.201 208.916C241.279 215.218 229.485 219.207 215.251 214.531C207.072 211.319 199.29 207.264 191.47 203.273C186.105 200.539 180.692 197.922 175.251 195.343C164.655 190.308 154.108 185.175 143.564 180.031C110.713 163.999 110.713 163.999 77.6321 148.449C67.2951 143.667 57.0555 138.694 46.8268 133.685C39.2111 129.956 31.5905 126.257 23.8608 122.769C22.6641 122.228 21.4674 121.686 20.2344 121.129C18.0251 120.137 15.8115 119.155 13.5928 118.185C8.39065 115.853 4.19551 113.923 0.688955 109.343C-0.349985 106.475 -0.100915 104.264 0.688955 101.343C4.59991 96.7277 9.77053 94.007 15.2436 91.6714C15.9649 91.3519 16.6862 91.0323 17.4293 90.7031C19.8026 89.655 22.1831 88.6242 24.564 87.5933C26.2594 86.8481 27.9544 86.1019 29.6489 85.3545C34.1011 83.3943 38.5594 81.4484 43.0196 79.5065C49.8194 76.5434 56.6102 73.5596 63.4028 70.5802C65.9587 69.4596 68.5154 68.3406 71.072 67.2217C84.3124 61.4206 97.4911 55.4888 110.654 49.5143C126.41 42.363 142.205 35.3049 158.025 28.298C164.212 25.5569 170.394 22.8033 176.575 20.0466C180.445 18.3206 184.318 16.5984 188.195 14.8855C188.928 14.5613 189.662 14.2372 190.418 13.9031C191.855 13.2682 193.292 12.6333 194.729 11.9986C198.892 10.1547 203.031 8.26545 207.158 6.33938C208.101 5.90875 209.045 5.47812 210.017 5.03444C211.658 4.28525 213.292 3.51888 214.913 2.72829C226.883 -2.65088 237.397 0.708226 248.689 6.03078Z" fill="#67C198"/>
<path d="M0.688961 263.343C3.50206 263.324 6.31503 263.31 9.12817 263.3C9.9115 263.294 10.6948 263.288 11.5019 263.282C18.4318 263.262 25.2724 263.733 32.1572 264.51C33.2825 264.637 33.2825 264.637 34.4306 264.766C35.5794 264.897 35.5794 264.897 36.7515 265.031C37.5499 265.12 38.3483 265.209 39.171 265.3C96.5001 271.744 150.696 293.017 192.689 333.343C193.258 333.885 193.827 334.427 194.413 334.985C205.713 345.794 214.874 357.413 223.689 370.343C221.05 375.872 218.196 381.248 215.166 386.57C196.96 418.659 188.53 451.776 188.449 488.667C188.439 491.311 188.408 493.954 188.376 496.597C188.307 508.022 189.347 518.929 191.316 530.179C191.885 533.477 192.378 536.784 192.876 540.093C193.147 541.843 193.418 543.593 193.689 545.343C187.004 542.139 180.71 538.44 174.376 534.593C172.141 533.244 169.906 531.895 167.669 530.546C166.809 530.027 166.809 530.027 165.931 529.497C159.705 525.743 153.448 522.043 147.189 518.343C132.014 509.363 116.864 500.341 101.814 491.152C100.05 490.075 98.2857 488.999 96.5214 487.923C95.3448 487.205 94.1683 486.487 92.992 485.769C86.5617 481.844 80.1066 477.977 73.5601 474.25C72.9791 473.918 72.3981 473.587 71.7996 473.245C69.0612 471.685 66.3175 470.136 63.5642 468.603C52.1942 462.171 42.1737 454.298 32.689 445.343C31.9787 444.686 31.2684 444.028 30.5366 443.351C25.457 438.496 21.4542 433.267 17.689 427.343C17.0277 426.303 16.3664 425.263 15.6851 424.191C11.9268 417.965 8.84162 411.753 6.37646 404.906C6.14628 404.275 5.9161 403.645 5.67895 402.995C4.93198 400.796 4.30687 398.583 3.68896 396.343C3.43312 395.426 3.17728 394.508 2.91369 393.563C-0.19638 380.527 0.311891 367.393 0.395992 354.066C0.401597 351.442 0.405863 348.818 0.408855 346.193C0.41811 340.032 0.442634 333.87 0.472904 327.708C0.506654 320.682 0.522985 313.657 0.53799 306.631C0.569191 292.202 0.621821 277.772 0.688961 263.343Z" fill="#AAE7BF"/>
<path d="M438.091 301.269C439.808 301.275 441.525 301.28 443.242 301.285C447.391 301.298 451.54 301.319 455.689 301.343C455.783 310.759 455.853 320.175 455.896 329.592C455.917 333.966 455.945 338.341 455.991 342.716C456.398 382.587 451.542 416.245 422.658 446.433C409.611 459.544 392.523 468.334 376.68 477.527C367.797 482.682 358.956 487.909 350.126 493.156C349.136 493.744 349.136 493.744 348.126 494.344C341.08 498.529 334.042 502.728 327.017 506.949C321.423 510.31 315.814 513.642 310.194 516.959C300.138 522.894 290.118 528.88 280.146 534.954C278.384 536.026 276.622 537.096 274.858 538.166C274.284 538.515 273.71 538.863 273.118 539.222C272.548 539.568 271.979 539.913 271.392 540.269C267.06 542.898 262.739 545.543 258.423 548.199C256.491 549.373 254.559 550.546 252.626 551.718C251.777 552.248 250.928 552.777 250.053 553.323C241.478 558.484 231.792 561.778 221.689 560.343C216.641 558.927 212.06 557.257 207.689 554.343C205.031 543.78 205.286 532.358 205.314 521.531C205.315 520.727 205.315 519.924 205.316 519.096C205.384 497.07 208.769 476.268 215.689 455.343C216.025 454.314 216.025 454.314 216.367 453.263C230.083 412.003 257.871 373.31 293.009 347.574C294.686 346.345 296.344 345.094 298.001 343.839C338.649 313.506 387.946 300.961 438.091 301.269Z" fill="#AAE7BF"/>
<path d="M78.689 170.343C82.4853 171.103 84.7145 171.666 88.0225 173.302C88.8497 173.707 89.6768 174.112 90.5291 174.53C91.8573 175.192 91.8573 175.192 93.2124 175.867C94.6064 176.552 94.6064 176.552 96.0286 177.252C98.0141 178.229 99.9983 179.209 101.981 180.191C105.083 181.728 108.189 183.258 111.296 184.785C115.336 186.772 119.375 188.76 123.413 190.75C132.797 195.368 142.232 199.876 151.689 204.343C152.98 204.954 154.272 205.566 155.563 206.177C169.764 212.896 183.972 219.604 198.251 226.156C199.094 226.546 199.936 226.936 200.804 227.338C215.547 234.051 228.998 236.691 244.689 231.343C261.664 224.775 277.908 215.953 294.244 207.957C302.578 203.877 310.939 199.857 319.322 195.876C325.597 192.888 331.822 189.811 337.999 186.626C342.476 184.343 342.476 184.343 344.689 184.343C344.689 215.693 344.689 247.043 344.689 279.343C338.622 282.101 332.679 284.777 326.527 287.27C300.089 298.123 275.977 313.669 254.314 332.234C253.724 332.738 253.134 333.241 252.527 333.761C251.368 334.753 250.214 335.75 249.064 336.752C246.606 338.868 244.799 340.307 241.689 341.343C241.106 340.556 240.524 339.768 239.923 338.957C233.659 330.591 226.942 322.863 219.689 315.343C218.764 314.377 218.764 314.377 217.82 313.392C208.989 304.211 199.933 295.911 189.689 288.343C188.803 287.663 187.918 286.982 187.005 286.281C173.895 276.383 159.543 268.294 144.689 261.343C143.767 260.903 143.767 260.903 142.827 260.455C122.339 250.736 100.814 245.449 78.689 240.343C78.689 217.243 78.689 194.143 78.689 170.343Z" fill="#67C198"/>
<path d="M284.689 354.343C285.349 354.673 286.009 355.003 286.689 355.343C277.119 364.913 267.549 374.483 257.689 384.343C257.029 384.013 256.369 383.683 255.689 383.343C261.897 376.509 268.171 369.759 274.689 363.218C275.228 362.675 275.767 362.131 276.323 361.571C278.972 358.932 281.618 356.484 284.689 354.343Z" fill="#A1E3B8"/>
<path d="M184.689 539.343C189.439 541.218 189.439 541.218 191.689 542.343C192.019 541.683 192.349 541.023 192.689 540.343C193.019 541.993 193.349 543.643 193.689 545.343C192.373 544.726 191.061 544.099 189.751 543.468C189.021 543.12 188.29 542.772 187.537 542.414C185.689 541.343 185.689 541.343 184.689 539.343Z" fill="#A0E3B8"/>
<path d="M382.689 192.343C383.349 192.673 384.009 193.003 384.689 193.343C383.399 194.719 382.062 196.051 380.689 197.343C380.029 197.343 379.369 197.343 378.689 197.343C378.359 198.333 378.029 199.323 377.689 200.343C377.359 199.683 377.029 199.023 376.689 198.343C380.439 193.468 380.439 193.468 382.689 192.343Z" fill="#58BA8E"/>
</svg>
