<?xml version="1.0" encoding="UTF-8"?>
<svg version="1.1" xmlns="http://www.w3.org/2000/svg" width="1024" height="1024">
<!-- <path d="M0 0 C337.92 0 675.84 0 1024 0 C1024 337.92 1024 675.84 1024 1024 C686.08 1024 348.16 1024 0 1024 C0 686.08 0 348.16 0 0 Z " fill="#FEFEFE" transform="translate(0,0)"/> -->
<path d="M0 0 C4.07343356 1.93381794 8.16598167 3.82356943 12.26220703 5.70849609 C17.23043636 7.99602912 22.19774501 10.28536664 27.15893555 12.58813477 C38.37275544 17.78946912 49.63564478 22.86503753 60.94580078 27.85302734 C73.58829093 33.43175843 86.13413139 39.18547785 98.62963867 45.08544922 C107.48202387 49.26274907 116.36705857 53.36097036 125.2829895 57.40087891 C127.36076611 58.34281155 129.43747636 59.28705785 131.51391602 60.23193359 C137.43554086 62.92453523 143.36039817 65.60745642 149.31167603 68.23399353 C152.29842663 69.55515813 155.27733147 70.89387985 158.25830078 72.22802734 C159.32935059 72.69233154 160.40040039 73.15663574 161.50390625 73.63500977 C167.21380053 76.20824018 171.11791598 78.30842582 174.50830078 83.66552734 C174.66671953 87.54678678 173.98847406 89.0940646 171.49731445 92.05883789 C167.79491541 95.28766372 163.97351354 97.2141614 159.55908203 99.31005859 C158.70525436 99.72470871 157.8514267 100.13935883 156.97172546 100.5665741 C155.17629867 101.43607017 153.3784575 102.30059652 151.57836914 103.16040039 C148.81446991 104.48105237 146.05840202 105.81702745 143.30322266 107.15576172 C141.55560987 107.9997601 139.80757735 108.84289005 138.05908203 109.68505859 C137.23201248 110.08497513 136.40494293 110.48489166 135.55281067 110.89692688 C134.40603096 111.44331062 134.40603096 111.44331062 133.23608398 112.00073242 C132.56277542 112.32318436 131.88946686 112.64563629 131.195755 112.9778595 C129.50830078 113.66552734 129.50830078 113.66552734 127.50830078 113.66552734 C127.52460979 120.94343684 127.5795089 128.22033203 127.66088867 135.49780273 C127.68404549 137.97201968 127.69845891 140.44633488 127.70385742 142.9206543 C127.71316329 146.48336859 127.75419403 150.04454239 127.80126953 153.60693359 C127.79537056 155.25889488 127.79537056 155.25889488 127.78935242 156.94422913 C127.92003466 163.86683721 129.04923149 167.44999635 133.50830078 172.66552734 C136.19408316 177.4496724 135.83165115 182.50703315 135.84423828 187.85693359 C135.85089508 188.83919418 135.85755188 189.82145477 135.8644104 190.83348083 C135.8745152 192.90532564 135.87922809 194.97720285 135.87890625 197.04907227 C135.88329051 200.22059367 135.91966382 203.39073532 135.95751953 206.56201172 C135.96338588 208.57698092 135.96735649 210.59195673 135.96923828 212.60693359 C135.98360931 213.55492325 135.99798035 214.5029129 136.01278687 215.47962952 C135.96709809 222.04710999 135.96709809 222.04710999 133.60449219 225.23168945 C128.73063772 228.56550582 123.95479633 227.8874518 118.19580078 227.91552734 C117.14972656 227.93615234 116.10365234 227.95677734 115.02587891 227.97802734 C114.01332031 227.98318359 113.00076172 227.98833984 111.95751953 227.99365234 C111.03285889 228.00299805 110.10819824 228.01234375 109.15551758 228.02197266 C105.97230954 227.59335662 104.09749647 226.53523332 101.50830078 224.66552734 C100.37905081 222.4070274 100.35332259 221.09911427 100.29956055 218.58984375 C100.28026993 217.74781403 100.26097931 216.9057843 100.24110413 216.03823853 C100.18302729 212.15053728 100.13398108 208.26302127 100.10327148 204.375 C100.081811 202.33641496 100.04785261 200.29791901 100.00073242 198.25976562 C99.49914355 176.35050671 99.49914355 176.35050671 106.50830078 166.66552734 C106.83830078 166.33552734 107.16830078 166.00552734 107.50830078 165.66552734 C107.66871271 162.56467513 107.7679348 159.48365156 107.82470703 156.38037109 C107.85587868 154.98414268 107.85587868 154.98414268 107.88768005 153.55970764 C107.95328009 150.57422552 108.0121088 147.58865251 108.07080078 144.60302734 C108.11397608 142.58413758 108.15759003 140.56525715 108.20166016 138.54638672 C108.30897207 133.58619438 108.41020966 128.62591026 108.50830078 123.66552734 C107.71584961 124.05184326 106.92339844 124.43815918 106.10693359 124.83618164 C92.08456146 131.66487926 78.05382169 138.46054972 63.88330078 144.97802734 C53.57725328 149.7207453 43.36177181 154.62742643 33.17056274 159.6109314 C21.71749586 165.21148038 10.26457717 170.80675858 -1.30419922 176.16552734 C-2.2390918 176.60396973 -3.17398438 177.04241211 -4.13720703 177.49414062 C-14.5239101 182.2545518 -25.59244331 185.13931364 -36.87744141 181.60522461 C-46.03317971 177.82079271 -54.95386458 173.66200383 -63.83123779 169.26541138 C-67.90590712 167.24820168 -71.98981478 165.24987251 -76.07373047 163.25146484 C-77.29298218 162.65438469 -77.29298218 162.65438469 -78.53686523 162.04524231 C-85.43626998 158.67463711 -92.38655749 155.42843119 -99.36669922 152.22802734 C-110.76002802 146.99405334 -122.04009177 141.54589876 -133.30419922 136.04052734 C-134.15200958 135.6262146 -134.99981995 135.21190186 -135.87332153 134.78503418 C-139.19163036 133.16321437 -142.50983797 131.54118774 -145.8278656 129.91879272 C-158.49153409 123.72940736 -171.2119064 117.66364772 -183.97998047 111.69287109 C-185.50303333 110.9796211 -187.02606378 110.26632325 -188.54907227 109.55297852 C-191.50808796 108.16710444 -194.46943879 106.78640845 -197.43237305 105.40893555 C-203.94658092 102.37069569 -210.42943075 99.26978881 -216.82763672 95.99365234 C-217.85163574 95.4719043 -218.87563477 94.95015625 -219.93066406 94.41259766 C-222.81736474 92.44336696 -224.02988039 90.81759358 -225.49169922 87.66552734 C-225.55419922 84.66552734 -225.55419922 84.66552734 -224.49169922 81.66552734 C-220.56766022 78.00083056 -216.82863677 75.61800054 -211.92529297 73.35302734 C-211.30293762 73.06275162 -210.68058228 72.77247589 -210.03936768 72.47340393 C-208.00669982 71.52838755 -205.96821079 70.59676712 -203.92919922 69.66552734 C-202.4879207 68.99938297 -201.04692566 68.33262496 -199.60620117 67.6652832 C-189.32139669 62.91339301 -178.99043996 58.26297594 -168.6418457 53.65185547 C-159.06370836 49.38366892 -149.5236556 45.03577075 -139.99169922 40.66552734 C-128.18552482 35.25403688 -116.35673251 29.89922845 -104.49707031 24.60571289 C-95.60354091 20.62941455 -86.74323376 16.58399053 -77.88916016 12.52078247 C-24.83202497 -11.82533448 -24.83202497 -11.82533448 0 0 Z " fill="#5FC197" transform="translate(537.49169921875,179.33447265625)"/>
<path d="M0 0 C1.23913147 0.00253784 1.23913147 0.00253784 2.5032959 0.00512695 C4.51912884 0.00950127 6.53495646 0.01622525 8.55078125 0.0234375 C8.62066655 10.34269189 8.6737865 20.66188885 8.70621777 30.98133278 C8.72179269 35.77442482 8.74287932 40.5673535 8.77709961 45.36035156 C8.80998751 49.99638828 8.82769551 54.63226906 8.83541298 59.26841354 C8.84090419 61.02641627 8.85162509 62.78441165 8.86797142 64.54234695 C9.0805675 88.3800818 2.81302961 109.08075681 -13.44921875 127.0234375 C-14.10921875 127.0234375 -14.76921875 127.0234375 -15.44921875 127.0234375 C-15.44921875 127.6834375 -15.44921875 128.3434375 -15.44921875 129.0234375 C-25.66962418 138.85163775 -39.08061763 145.52273902 -51.51171875 152.0859375 C-52.72436273 152.7304212 -53.9367592 153.37537079 -55.14892578 154.02075195 C-57.65869696 155.35649262 -60.16949653 156.69026758 -62.68115234 158.02246094 C-68.73723539 161.23624371 -74.7806593 164.47368539 -80.82421875 167.7109375 C-81.41002716 168.02451202 -81.99583557 168.33808655 -82.59939575 168.66116333 C-91.12002507 173.22260837 -99.61423076 177.8299862 -108.09228516 182.4699707 C-116.61770332 187.12957141 -125.18170889 191.7165139 -133.75 196.29663086 C-139.70294114 199.47911684 -145.65191052 202.66848784 -151.58984375 205.87890625 C-153.31895996 206.81307373 -153.31895996 206.81307373 -155.08300781 207.76611328 C-157.24724677 208.93613339 -159.41072288 210.10756627 -161.57324219 211.28076172 C-164.52472519 212.87559983 -167.48416859 214.45397914 -170.44921875 216.0234375 C-171.50262451 216.58546875 -172.55603027 217.1475 -173.64135742 217.7265625 C-174.68525635 218.26925781 -175.72915527 218.81195312 -176.8046875 219.37109375 C-177.73692139 219.859729 -178.66915527 220.34836426 -179.62963867 220.85180664 C-185.48738759 223.28589938 -191.5179126 223.57219148 -197.46826172 221.22802734 C-208.23330966 216.23934659 -208.23330966 216.23934659 -211.44921875 213.0234375 C-220.27996747 173.63958737 -207.57316185 129.38916215 -186.44921875 96.0234375 C-155.95162665 49.15792902 -107.45994071 17.77977077 -53.11938477 5.86108398 C-35.5220468 2.17959204 -18.00255623 -0.07085832 0 0 Z " fill="#A2E6C1" transform="translate(701.44921875,432.9765625)"/>
<path d="M0 0 C2.54306461 -0.01209608 5.08607071 -0.0208933 7.62915039 -0.02783203 C8.34255836 -0.03156326 9.05596634 -0.03529449 9.79099274 -0.03913879 C15.7331757 -0.0512733 21.54354388 0.34960255 27.4375 1.125 C28.44337158 1.25551758 29.44924316 1.38603516 30.4855957 1.52050781 C75.60084599 7.81841941 120.76663657 26.40273709 153.55029297 58.58544922 C154.94207778 59.94348242 156.36311019 61.27134401 157.78515625 62.59765625 C165.83640509 70.2782001 172.57449848 78.93414671 179 88 C179.5043457 88.7007666 180.00869141 89.4015332 180.52832031 90.12353516 C183.97560202 95.19229844 183.97560202 95.19229844 184.07421875 98.45703125 C182.46115956 102.27558228 180.6655115 105.98034963 178.8125 109.6875 C161.99479986 144.42849288 156.60171233 187.11655156 169.125 224.125 C170.05560322 226.76161506 171.02136323 229.38053511 172 232 C172.33 232.99 172.66 233.98 173 235 C168.93537153 233.73973393 165.30465026 232.23458907 161.5703125 230.19921875 C160.02537109 229.36197266 160.02537109 229.36197266 158.44921875 228.5078125 C157.35222656 227.90710938 156.25523437 227.30640625 155.125 226.6875 C153.37004942 225.73436334 151.61509758 224.78122897 149.86004639 223.82827759 C148.06494503 222.85255126 146.27106787 221.87460962 144.47753906 220.89599609 C139.32428343 218.08637918 134.16180897 215.29386036 129 212.5 C127.01040019 211.42190541 125.02081697 210.3437802 123.03125 209.265625 C109.72950312 202.06123283 96.42649363 194.85932054 83.05078125 187.79296875 C58.33668224 174.7354951 58.33668224 174.7354951 46.125 167.9375 C45.23530518 167.45015381 44.34561035 166.96280762 43.42895508 166.46069336 C24.60150542 155.86179059 9.71440829 139.73134822 3 119 C2.7523439 118.31239594 2.50468781 117.62479187 2.24952698 116.91635132 C-1.20782464 105.71071149 -0.37338795 94.0205536 -0.29296875 82.421875 C-0.2873655 80.04006214 -0.28309885 77.65824579 -0.28010559 75.27642822 C-0.26871427 69.04248312 -0.23929665 62.80875155 -0.20599365 56.57489014 C-0.17516907 50.19969571 -0.16157388 43.8244664 -0.14648438 37.44921875 C-0.11442115 24.96605262 -0.06329455 12.48304414 0 0 Z " fill="#A2E6C1" transform="translate(314,409)"/>
<path d="M0 0 C6.27 2.97 12.54 5.94 19 9 C23.81991384 11.22792234 23.81991384 11.22792234 28.64355469 13.44775391 C41.43647292 19.32541816 54.10573978 25.43477214 66.75 31.625 C77.73349662 36.99702475 88.71534975 42.36547101 99.8125 47.5 C100.72290039 47.92619629 101.63330078 48.35239258 102.57128906 48.79150391 C111.1482626 52.71542861 119.24718395 55.53218386 128.75 55.4375 C129.44609375 55.45748047 130.1421875 55.47746094 130.859375 55.49804688 C144.2656234 55.48607701 156.25563495 49.30704201 167.9375 43.4375 C169.39569668 42.71593947 170.85452774 41.99565965 172.31396484 41.27661133 C175.21105362 39.84836463 178.10571007 38.41537697 180.99853516 36.97851562 C186.3479025 34.32676575 191.73290869 31.75104667 197.125 29.1875 C198.92329179 28.33096996 200.72146994 27.47420127 202.51953125 26.6171875 C203.40205566 26.19663086 204.28458008 25.77607422 205.19384766 25.34277344 C208.28308353 23.86454155 211.36641821 22.37441615 214.44921875 20.8828125 C216.04515869 20.11287964 216.04515869 20.11287964 217.67333984 19.32739258 C219.7233267 18.3381121 221.77189747 17.34589033 223.81884766 16.3503418 C224.73069824 15.91117432 225.64254883 15.47200684 226.58203125 15.01953125 C227.38874268 14.62870361 228.1954541 14.23787598 229.02661133 13.83520508 C231 13 231 13 233 13 C233 40.72 233 68.44 233 97 C223 101 223 101 218.45703125 102.71875 C199.52035884 109.92170586 181.39753435 119.04697188 165 131 C164.4416748 131.40428223 163.88334961 131.80856445 163.30810547 132.22509766 C151.97323472 140.50234191 141.78879353 149.95209135 132 160 C127.83011552 158.45524734 126.06349577 155.72085167 123.5 152.1875 C92.98603143 111.25412753 48.034973 88.12793324 0 74 C0 49.58 0 25.16 0 0 Z " fill="#5EC197" transform="translate(382,322)"/>
<path d="M0 0 C6.6 0 13.2 0 20 0 C26.04994609 6.60671649 26.04994609 6.60671649 27.41015625 9.67382812 C27.71453613 10.33455322 28.01891602 10.99527832 28.33251953 11.67602539 C28.63528809 12.33981201 28.93805664 13.00359863 29.25 13.6875 C29.90281042 14.97835064 30.56294764 16.26552287 31.23046875 17.54882812 C32.54295953 20.08709241 33.81631602 22.63995027 35.06835938 25.20849609 C37.97043651 31.04709135 41.48486713 36.51530078 45 42 C48.27909642 38.11063376 50.88139548 34.05971633 53.44140625 29.6875 C53.85035629 28.99615967 54.25930634 28.30481934 54.6806488 27.5925293 C55.97822403 25.39713553 57.27046341 23.198657 58.5625 21 C59.43388714 19.52322641 60.3056286 18.04666182 61.17773438 16.5703125 C62.78029584 13.85676862 64.38056139 11.14189677 65.97875977 8.42578125 C67.64017008 5.60987238 69.31785638 2.8035727 71 0 C77.6 0 84.2 0 91 0 C91 29.7 91 59.4 91 90 C85.06 90 79.12 90 73 90 C72.505 61.29 72.505 61.29 72 32 C62.09845175 48.49018182 62.09845175 48.49018182 52.64453125 65.203125 C49.90694524 68.09841538 49.32791138 68.57279623 45.57421875 68.984375 C42.69664469 68.74657857 41.42384154 68.41181015 39.34008789 66.38720703 C37.72485269 63.9968657 36.36367552 61.54221628 35 59 C33.81564907 57.05997734 32.62258509 55.125253 31.421875 53.1953125 C30.19595256 51.17306437 28.97201594 49.14961116 27.75 47.125 C26.51616828 45.08560872 25.28181711 43.04653158 24.046875 41.0078125 C23.24008301 39.67194092 23.24008301 39.67194092 22.41699219 38.30908203 C21.31624693 36.51534519 20.16739446 34.7510917 19 33 C18.67 51.81 18.34 70.62 18 90 C12.06 90 6.12 90 0 90 C0 60.3 0 30.6 0 0 Z " fill="#5CC096" transform="translate(298,763)"/>
<path d="M0 0 C4.7885153 2.2023515 7.59327561 5.08333209 10.671875 9.31640625 C11.09597656 8.9296875 11.52007813 8.54296875 11.95703125 8.14453125 C19.15283244 1.75529239 23.92149194 -1.39628096 33.7421875 -0.9921875 C41.17863288 -0.20888192 45.1736095 2.21384605 50.12890625 7.79296875 C54.53336948 14.99621747 55.09536116 22.2022679 54.96484375 30.4765625 C54.96059891 31.50704208 54.95635406 32.53752167 54.95198059 33.59922791 C54.93531716 36.8593974 54.89768801 40.11892664 54.859375 43.37890625 C54.84431222 45.60220455 54.83062662 47.82551264 54.81835938 50.04882812 C54.78545407 55.47159723 54.73375772 60.89389355 54.671875 66.31640625 C48.731875 66.31640625 42.791875 66.31640625 36.671875 66.31640625 C36.65729248 65.03999268 36.64270996 63.7635791 36.62768555 62.44848633 C36.5696396 57.70520246 36.49240672 52.96239018 36.40942383 48.21948242 C36.37620417 46.16812809 36.34816303 44.116683 36.32543945 42.06518555 C36.2918393 39.11337676 36.23952024 36.16239739 36.18359375 33.2109375 C36.17720383 32.29617142 36.1708139 31.38140533 36.16423035 30.43891907 C36.05329335 25.61613719 35.86797121 22.19027658 32.671875 18.31640625 C28.97060641 15.84889386 27.04963968 16.00919469 22.671875 16.31640625 C20.01544192 17.17795211 19.02885368 17.72536573 17.58633423 20.1137085 C16.59079347 22.51171086 16.39762503 24.22290438 16.35302734 26.80957031 C16.33315765 27.69018127 16.31328796 28.57079224 16.29281616 29.47808838 C16.27548935 30.8907901 16.27548935 30.8907901 16.2578125 32.33203125 C16.23844635 33.30299744 16.2190802 34.27396362 16.1991272 35.27435303 C16.13940991 38.37161511 16.0929772 41.46891451 16.046875 44.56640625 C16.00868802 46.66798484 15.96963586 48.7695479 15.9296875 50.87109375 C15.83371469 56.01940493 15.7496544 61.16778937 15.671875 66.31640625 C9.731875 66.31640625 3.791875 66.31640625 -2.328125 66.31640625 C-2.37710938 63.36574219 -2.42609375 60.41507813 -2.4765625 57.375 C-2.5306463 54.50214781 -2.5879247 51.62937573 -2.64550781 48.7565918 C-2.68367761 46.76739525 -2.71855098 44.77813251 -2.75 42.78881836 C-2.79591197 39.92147235 -2.85386247 37.05457737 -2.9140625 34.1875 C-2.92561371 33.30493027 -2.93716492 32.42236053 -2.94906616 31.51304626 C-3.069352 26.42583332 -3.69737676 22.14284885 -5.328125 17.31640625 C-9.70460675 15.91593209 -14.24703515 15.64145819 -18.640625 17.06640625 C-20.74216995 18.62310621 -21.32849772 19.9085605 -22.328125 22.31640625 C-22.6504721 24.49344354 -22.6504721 24.49344354 -22.64697266 26.80957031 C-22.66684235 27.69018127 -22.68671204 28.57079224 -22.70718384 29.47808838 C-22.72451065 30.8907901 -22.72451065 30.8907901 -22.7421875 32.33203125 C-22.76155365 33.30299744 -22.7809198 34.27396362 -22.8008728 35.27435303 C-22.86059009 38.37161511 -22.9070228 41.46891451 -22.953125 44.56640625 C-22.99131198 46.66798484 -23.03036414 48.7695479 -23.0703125 50.87109375 C-23.16628531 56.01940493 -23.2503456 61.16778937 -23.328125 66.31640625 C-29.268125 66.31640625 -35.208125 66.31640625 -41.328125 66.31640625 C-41.328125 44.86640625 -41.328125 23.41640625 -41.328125 1.31640625 C-35.718125 1.31640625 -30.108125 1.31640625 -24.328125 1.31640625 C-24.328125 2.96640625 -24.328125 4.61640625 -24.328125 6.31640625 C-23.70164062 5.89488281 -23.07515625 5.47335937 -22.4296875 5.0390625 C-21.61242187 4.49121094 -20.79515625 3.94335938 -19.953125 3.37890625 C-19.14101563 2.83363281 -18.32890625 2.28835938 -17.4921875 1.7265625 C-12.23003728 -1.70238376 -6.00688379 -1.76376621 0 0 Z " fill="#5EC197" transform="translate(614.328125,683.68359375)"/>
<path d="M0 0 C6.84044542 5.70037118 11.61709364 14.03759466 12.48828125 22.953125 C12.52860187 33.86657249 10.97574772 42.68797947 3.31640625 50.875 C-5.23848705 59.17065411 -13.9567297 61.49779765 -25.60327148 61.34594727 C-34.6590761 60.96325044 -41.3790668 58.11495608 -47.9921875 51.86328125 C-55.64161554 43.5080047 -58.33249031 35.51791004 -58.125 24.22265625 C-57.33862116 15.79857287 -53.90503478 7.81710183 -47.8125 1.875 C-33.10959474 -9.3631723 -15.46046144 -10.89962531 0 0 Z " fill="#5DC096" transform="translate(658.8125,793.125)"/>
<path d="M0 0 C19.14 0 38.28 0 58 0 C58 5.28 58 10.56 58 16 C45.13 16 32.26 16 19 16 C19 22.6 19 29.2 19 36 C30.88 36 42.76 36 55 36 C55 41.28 55 46.56 55 52 C43.12 52 31.24 52 19 52 C19 58.93 19 65.86 19 73 C31.87 73 44.74 73 58 73 C58 78.28 58 83.56 58 89 C38.86 89 19.72 89 0 89 C0 59.63 0 30.26 0 0 Z " fill="#5DC096" transform="translate(361,661)"/>
<path d="M0 0 C5.72004379 4.64950348 8.26710691 9.94739977 10 17 C10.37203156 20.6565085 10.35221469 24.2691405 10.29296875 27.94140625 C10.28872391 28.94968979 10.28447906 29.95797333 10.28010559 30.99681091 C10.26344683 34.18565716 10.22581877 37.373848 10.1875 40.5625 C10.17243661 42.73762102 10.15875112 44.91275204 10.14648438 47.08789062 C10.1135853 52.39217577 10.06189243 57.69597715 10 63 C4.39 63 -1.22 63 -7 63 C-7.495 59.535 -7.495 59.535 -8 56 C-8.45890625 56.40992188 -8.9178125 56.81984375 -9.390625 57.2421875 C-10.00421875 57.78101563 -10.6178125 58.31984375 -11.25 58.875 C-11.85328125 59.40867187 -12.4565625 59.94234375 -13.078125 60.4921875 C-19.48523113 65.51890085 -27.24161908 64.75428703 -35 64 C-40.25938545 62.15004174 -44.02161624 58.69668208 -47 54 C-49.33811993 48.73923015 -50.02762558 43.46010638 -48.3828125 37.921875 C-46.00693184 32.41319595 -42.26979927 28.81893862 -37 26 C-30.919549 23.7549104 -25.00064805 23.57606123 -18.5625 23.375 C-17.54478516 23.33632813 -16.52707031 23.29765625 -15.47851562 23.2578125 C-12.98585064 23.16419128 -10.4931805 23.07846007 -8 23 C-8.28081105 21.54109739 -8.5734344 20.08446476 -8.87109375 18.62890625 C-9.03279053 17.81752197 -9.1944873 17.0061377 -9.36108398 16.17016602 C-9.87068589 13.80026501 -9.87068589 13.80026501 -12.0625 11.9375 C-16.13501999 10.63775958 -19.76958258 10.30259423 -24 11 C-27.04881825 12.57016952 -27.04881825 12.57016952 -29 15 C-29.33 16.32 -29.66 17.64 -30 19 C-35.61 19 -41.22 19 -47 19 C-45.90751924 11.35263469 -44.059288 6.39369624 -38.0703125 1.38671875 C-26.97667397 -5.92990277 -11.624576 -6.68837031 0 0 Z " fill="#5DC096" transform="translate(549,687)"/>
<path d="M0 0 C8.57620922 4.78672143 12.95104018 11.85312055 16 21 C16 25.95 16 30.9 16 36 C0.82 36 -14.36 36 -30 36 C-28.36607542 43.6220449 -28.36607542 43.6220449 -24 49 C-20.02156085 51.25803303 -16.51743161 51.38943376 -12 51 C-7.93672892 49.80154025 -5.42089378 48.63134067 -3 45 C-1.12060547 44.65942383 -1.12060547 44.65942383 1.1328125 44.70703125 C1.93847656 44.71669922 2.74414062 44.72636719 3.57421875 44.73632812 C4.41597656 44.76146484 5.25773437 44.78660156 6.125 44.8125 C6.97449219 44.82603516 7.82398438 44.83957031 8.69921875 44.85351562 C10.79974837 44.88891781 12.89995293 44.94272599 15 45 C14.2910183 51.93004647 11.03351394 55.42723949 6 60 C-3.06793578 65.97993603 -13.48856047 65.85837029 -24 65 C-31.23924388 63.4978569 -37.22057422 59.61848053 -42 54 C-48.59967583 43.34529947 -49.88949622 31.10600587 -47.3515625 18.875 C-44.16529631 10.16042579 -38.36681526 4.21824759 -30.2109375 0.0078125 C-29.48132813 -0.32476563 -28.75171875 -0.65734375 -28 -1 C-27.21238281 -1.36738281 -26.42476563 -1.73476563 -25.61328125 -2.11328125 C-17.52915096 -4.85632695 -7.67190386 -3.47406967 0 0 Z " fill="#5CC095" transform="translate(450,789)"/>
<path d="M0 0 C5.20978265 3.52041798 7.80451365 8.38309828 9.8671875 14.26171875 C10.9267554 19.98917393 10.99793595 25.55261494 10.96484375 31.3515625 C10.9634288 32.2960878 10.96201385 33.2406131 10.96055603 34.21376038 C10.9549911 37.20894638 10.94244517 40.20405562 10.9296875 43.19921875 C10.92466796 45.23893121 10.92010585 47.27864484 10.91601562 49.31835938 C10.90503317 54.29950841 10.8877929 59.2806006 10.8671875 64.26171875 C4.9271875 64.26171875 -1.0128125 64.26171875 -7.1328125 64.26171875 C-7.14739502 62.99054199 -7.16197754 61.71936523 -7.17700195 60.40966797 C-7.23511057 55.67940583 -7.31234298 50.94961345 -7.39526367 46.21972656 C-7.42845391 44.17520795 -7.45650413 42.13059901 -7.47924805 40.0859375 C-7.51290243 37.14153669 -7.56522416 34.19795921 -7.62109375 31.25390625 C-7.62748367 30.34430145 -7.6338736 29.43469666 -7.64045715 28.49752808 C-7.75877911 23.35414976 -8.2828696 19.71992268 -11.1328125 15.26171875 C-14.06740356 12.87057048 -17.38107582 12.84422936 -21.1015625 12.94140625 C-24.48710408 13.47528011 -26.57461698 15.06897973 -29.1328125 17.26171875 C-30.89171565 20.12965371 -31.39267672 22.32069106 -31.45166016 25.66308594 C-31.47152985 26.52367615 -31.49139954 27.38426636 -31.51187134 28.27093506 C-31.52919815 29.65082611 -31.52919815 29.65082611 -31.546875 31.05859375 C-31.56624115 32.00736389 -31.5856073 32.95613403 -31.6055603 33.93365479 C-31.66526909 36.95958508 -31.71170683 39.98555359 -31.7578125 43.01171875 C-31.79600027 45.06512062 -31.83505247 47.11850661 -31.875 49.171875 C-31.97096358 54.20169371 -32.05502696 59.2315874 -32.1328125 64.26171875 C-38.0728125 64.26171875 -44.0128125 64.26171875 -50.1328125 64.26171875 C-50.1328125 42.81171875 -50.1328125 21.36171875 -50.1328125 -0.73828125 C-44.5228125 -0.73828125 -38.9128125 -0.73828125 -33.1328125 -0.73828125 C-32.8028125 0.91171875 -32.4728125 2.56171875 -32.1328125 4.26171875 C-31.111875 3.36453125 -31.111875 3.36453125 -30.0703125 2.44921875 C-21.19042173 -4.16346587 -9.98363807 -5.21123965 0 0 Z " fill="#5EC197" transform="translate(528.1328125,788.73828125)"/>
<path d="M0 0 C6.57454727 -1.14127898 13.56525677 -2.16725727 20 0 C25.59602363 4.65220898 28.92345093 11.51740843 32 18 C35.15180077 15.00652435 37.33071305 11.53845819 39.625 7.875 C43.89527027 1.10472973 43.89527027 1.10472973 45 0 C46.4887186 -0.08669432 47.981445 -0.10703494 49.47265625 -0.09765625 C50.37177734 -0.09443359 51.27089844 -0.09121094 52.19726562 -0.08789062 C53.61555664 -0.07532227 53.61555664 -0.07532227 55.0625 -0.0625 C56.01189453 -0.05798828 56.96128906 -0.05347656 57.93945312 -0.04882812 C60.29303065 -0.0370011 62.64648477 -0.02052025 65 0 C60.04977434 8.22713561 54.47526869 15.85866195 48.671875 23.49609375 C48.20845703 24.11339355 47.74503906 24.73069336 47.26757812 25.36669922 C46 27 46 27 44.015625 29.16015625 C42.72733142 31.01382134 42.72733142 31.01382134 43.53125 33.37890625 C45.27233812 36.48600765 47.27924698 39.15101717 49.5 41.9375 C53.30894822 46.78441836 57.02326342 51.68429175 60.625 56.6875 C61.06263672 57.28747803 61.50027344 57.88745605 61.95117188 58.50561523 C65 62.76280539 65 62.76280539 65 65 C47.27284751 66.63094821 47.27284751 66.63094821 42.2890625 63.0546875 C40.5229257 60.44144435 39.23931066 57.89719644 38 55 C37.08929877 53.44235254 36.15408479 51.89859975 35.1875 50.375 C34.80980469 49.72273437 34.43210937 49.07046875 34.04296875 48.3984375 C33.69878906 47.93695312 33.35460937 47.47546875 33 47 C32.34 47 31.68 47 31 47 C29.69262547 48.59730697 29.69262547 48.59730697 28.43359375 50.68359375 C27.7055957 51.82731445 27.7055957 51.82731445 26.96289062 52.99414062 C26.45951172 53.80044922 25.95613281 54.60675781 25.4375 55.4375 C24.43709446 57.02009834 23.43583674 58.60215841 22.43359375 60.18359375 C21.99072021 60.89056396 21.54784668 61.59753418 21.09155273 62.32592773 C20 64 20 64 19 65 C17.5112814 65.08669432 16.018555 65.10703494 14.52734375 65.09765625 C13.62822266 65.09443359 12.72910156 65.09121094 11.80273438 65.08789062 C10.38444336 65.07532227 10.38444336 65.07532227 8.9375 65.0625 C7.98810547 65.05798828 7.03871094 65.05347656 6.06054688 65.04882812 C3.70696935 65.0370011 1.35351523 65.02052025 -1 65 C1.87254196 59.70739286 5.13332454 55.00855501 8.8125 50.25 C13.56413596 44.02091584 17.9576436 37.71828246 22 31 C21.39414062 30.22398437 20.78828125 29.44796875 20.1640625 28.6484375 C15.50470425 22.65260874 10.92746384 16.60707818 6.5 10.4375 C6.07928223 9.85468262 5.65856445 9.27186523 5.22509766 8.67138672 C3.22532877 5.86516707 1.49333909 3.10068309 0 0 Z " fill="#5CC095" transform="translate(428,685)"/>
<path d="M0 0 C5.94 0 11.88 0 18 0 C18 6.6 18 13.2 18 20 C23.61 20 29.22 20 35 20 C35 24.95 35 29.9 35 35 C29.39 35 23.78 35 18 35 C18.02807403 39.50460603 18.07104449 44.00385782 18.15258789 48.50708008 C18.17577965 50.03854698 18.19016644 51.57017363 18.19555664 53.10180664 C18.20483892 55.30456212 18.24580268 57.5048014 18.29296875 59.70703125 C18.2890361 60.39150833 18.28510345 61.07598541 18.28105164 61.78120422 C18.2938424 63.96170244 18.2938424 63.96170244 19 67 C24.02016154 71.11570269 28.78106562 70.22478076 35 70 C35 74.95 35 79.9 35 85 C30.61729758 86.09567561 26.73817476 86.25749786 22.25 86.3125 C21.08984375 86.35600586 21.08984375 86.35600586 19.90625 86.40039062 C14.21973862 86.46240795 9.66382751 85.38197681 5 82 C0.22273572 76.07070976 -0.1468579 70.04425256 -0.09765625 62.734375 C-0.0962413 61.94097717 -0.09482635 61.14757935 -0.09336853 60.33013916 C-0.08778415 57.80338728 -0.07523454 55.27672496 -0.0625 52.75 C-0.05748298 51.03385545 -0.05292043 49.31770951 -0.04882812 47.6015625 C-0.03781984 43.40100731 -0.02056596 39.20051883 0 35 C-2.97 35 -5.94 35 -9 35 C-9 30.05 -9 25.1 -9 20 C-6.03 20 -3.06 20 0 20 C0 13.4 0 6.8 0 0 Z " fill="#5DC096" transform="translate(558,768)"/>
<path d="M0 0 C0 5.94 0 11.88 0 18 C-2.784375 18.1546875 -2.784375 18.1546875 -5.625 18.3125 C-10.37686448 18.72108199 -14.0350282 19.15335358 -18 22 C-22.03945799 27.43237453 -22.17303819 32.68754086 -22.31640625 39.265625 C-22.33718735 40.05902283 -22.35796844 40.85242065 -22.37937927 41.66986084 C-22.44459973 44.19648844 -22.50363144 46.72321721 -22.5625 49.25 C-22.6057114 50.96615616 -22.64932653 52.68230222 -22.69335938 54.3984375 C-22.80101034 58.59885627 -22.90028773 62.79935527 -23 67 C-28.94 67 -34.88 67 -41 67 C-41 45.55 -41 24.1 -41 2 C-35.06 2 -29.12 2 -23 2 C-22.67 4.31 -22.34 6.62 -22 9 C-21.525625 8.2575 -21.05125 7.515 -20.5625 6.75 C-14.45933168 0.20025838 -8.89476761 0 0 0 Z " fill="#5FC197" transform="translate(723,786)"/>
<path d="M0 0 C4.02008948 2.70919074 7.93191131 6.15341184 9.52734375 10.86328125 C10.68019248 17.74151358 10.54824248 24.83801986 6.875 30.9375 C3.8702129 34.15863177 0.74013605 36.76718069 -3.734375 37.17578125 C-14.39837762 37.42779126 -14.39837762 37.42779126 -19.125 32.9375 C-24.19722849 26.35731169 -25.13255985 20.12250869 -24.125 11.9375 C-22.0613152 6.7740065 -18.77296385 2.99537095 -14.125 -0.0625 C-9.19058151 -1.70730616 -4.86089501 -1.6527043 0 0 Z " fill="#FDFEFD" transform="translate(643.125,802.0625)"/>
<path d="M0 0 C1.25425781 0.00902344 2.50851562 0.01804687 3.80078125 0.02734375 C4.75339844 0.03894531 5.70601562 0.05054688 6.6875 0.0625 C6.43329557 5.89649158 6.07386822 9.80514261 1.6875 14.0625 C-1.73171547 16.34197698 -3.21560177 16.38763105 -7.25 16.4375 C-8.29027344 16.46585938 -9.33054687 16.49421875 -10.40234375 16.5234375 C-13.99180623 15.95490519 -15.12745667 14.91233245 -17.3125 12.0625 C-17.875 9.125 -17.875 9.125 -17.3125 6.0625 C-12.37596496 -0.28447362 -7.62204752 -0.07123409 0 0 Z " fill="#FCFDFD" transform="translate(534.3125,721.9375)"/>
<path d="M0 0 C5.01349878 2.28685909 7.04136653 4.88579038 9 10 C9 10.99 9 11.98 9 13 C-0.57 13 -10.14 13 -20 13 C-18.79612355 4.57286484 -18.79612355 4.57286484 -14.296875 1.10546875 C-9.68934223 -1.11210229 -4.9520154 -0.7978247 0 0 Z " fill="#FCFDFD" transform="translate(440,800)"/>
<path d="M0 0 C5.61 0 11.22 0 17 0 C17 1.98 17 3.96 17 6 C16.67 6 16.34 6 16 6 C16 4.35 16 2.7 16 1 C11.38 1 6.76 1 2 1 C2 21.46 2 41.92 2 63 C6.62 63 11.24 63 16 63 C15.98952637 61.8039917 15.97905273 60.6079834 15.96826172 59.37573242 C15.93208595 54.94216907 15.90910834 50.50861879 15.89013672 46.07495117 C15.88007361 44.15533251 15.86642184 42.23572919 15.84912109 40.31616211 C15.82488636 37.55839248 15.81352008 34.80082536 15.8046875 32.04296875 C15.79436493 31.18350143 15.78404236 30.32403412 15.77340698 29.43852234 C15.77325592 28.63791885 15.77310486 27.83731537 15.77294922 27.01245117 C15.768508 26.3085173 15.76406677 25.60458344 15.75949097 24.87931824 C16 23 16 23 18 20 C18 34.85 18 49.7 18 65 C12.06 65 6.12 65 0 65 C0 43.55 0 22.1 0 0 Z " fill="#4FBB8D" transform="translate(573,685)"/>
<path d="M0 0 C5.94 0 11.88 0 18 0 C18 2.64 18 5.28 18 8 C17.67 8 17.34 8 17 8 C17 5.69 17 3.38 17 1 C12.05 1 7.1 1 2 1 C2 21.46 2 41.92 2 63 C6.95 63 11.9 63 17 63 C17 51.45 17 39.9 17 28 C17.33 28 17.66 28 18 28 C18 40.21 18 52.42 18 65 C12.06 65 6.12 65 0 65 C0 43.55 0 22.1 0 0 Z " fill="#54BD90" transform="translate(682,788)"/>
<path d="M0 0 C5.28 0 10.56 0 16 0 C16 0.33 16 0.66 16 1 C11.05 1 6.1 1 1 1 C1 21.46 1 41.92 1 63 C5.95 63 10.9 63 16 63 C15.98952637 61.88028809 15.97905273 60.76057617 15.96826172 59.60693359 C15.93194701 55.43606793 15.90905787 51.26521613 15.89013672 47.09423828 C15.88010524 45.29213101 15.86647685 43.4900399 15.84912109 41.68798828 C15.824747 39.09143065 15.81348822 36.49508903 15.8046875 33.8984375 C15.79436493 33.0982016 15.78404236 32.2979657 15.77340698 31.47348022 C15.77250113 26.91409479 16.26397184 23.29501777 18 19 C18.94205985 21.82617956 19.09846177 23.38050418 19.02172852 26.2878418 C18.99158409 27.57884041 18.99158409 27.57884041 18.96083069 28.8959198 C18.92027809 30.28355278 18.92027809 30.28355278 18.87890625 31.69921875 C18.85529526 32.64940384 18.83168427 33.59958893 18.80735779 34.5785675 C18.73075165 37.61503146 18.64671397 40.65123843 18.5625 43.6875 C18.50927627 45.74543011 18.45653589 47.80337278 18.40429688 49.86132812 C18.27514055 54.90771499 18.13931868 59.95388388 18 65 C12.06 65 6.12 65 0 65 C0 43.55 0 22.1 0 0 Z " fill="#4CB98B" transform="translate(478,788)"/>
<path d="M0 0 C2 2 2 2 2.24050903 4.02481079 C2.2338472 5.27057388 2.2338472 5.27057388 2.22705078 6.54150391 C2.22689972 7.48232819 2.22674866 8.42315247 2.22659302 9.39248657 C2.21627045 10.41023163 2.20594788 11.42797668 2.1953125 12.4765625 C2.1924826 13.51694672 2.18965271 14.55733093 2.18673706 15.62924194 C2.17551704 18.96127694 2.15040915 22.29304586 2.125 25.625 C2.11497256 27.88020446 2.1058463 30.13541312 2.09765625 32.390625 C2.07557174 37.92718629 2.04102946 43.46354799 2 49 C-3.94 49 -9.88 49 -16 49 C-16 34.81 -16 20.62 -16 6 C-15.67 6 -15.34 6 -15 6 C-15 19.53 -15 33.06 -15 47 C-10.05 47 -5.1 47 0 47 C0 31.49 0 15.98 0 0 Z " fill="#4DBA8C" transform="translate(667,701)"/>
<path d="M0 0 C0.99 0.66 1.98 1.32 3 2 C3 2.66 3 3.32 3 4 C-3.6 4 -10.2 4 -17 4 C-17 3.01 -17 2.02 -17 1 C-11.39 1.33 -5.78 1.66 0 2 C0 1.34 0 0.68 0 0 Z " fill="#50BA8E" transform="translate(490,746)"/>
<path d="M0 0 C5.94 0.33 11.88 0.66 18 1 C18 1.33 18 1.66 18 2 C16.49759766 2.00386719 16.49759766 2.00386719 14.96484375 2.0078125 C6.13553375 2.00592039 6.13553375 2.00592039 -1.4375 6.0625 C-2.283125 7.031875 -3.12875 8.00125 -4 9 C-2.79310745 5.89656201 -1.49403054 2.98806107 0 0 Z " fill="#55BD92" transform="translate(369,763)"/>
<path d="M0 0 C-0.51949219 0.24234375 -1.03898438 0.4846875 -1.57421875 0.734375 C-5.81271608 2.77136078 -9.43232946 4.87828828 -13 8 C-12.62642278 5.39611102 -12.28877098 4.25705243 -10.29296875 2.48046875 C-9.59816406 2.05378906 -8.90335938 1.62710938 -8.1875 1.1875 C-7.50042969 0.74792969 -6.81335938 0.30835938 -6.10546875 -0.14453125 C-3.60705494 -1.15965671 -2.48957835 -0.91191297 0 0 Z " fill="#4DBB8C" transform="translate(715,788)"/>
<path d="M0 0 C2.61047801 1.305239 2.68066423 2.35826574 3.625 5.0625 C3.88539063 5.79597656 4.14578125 6.52945313 4.4140625 7.28515625 C4.60742188 7.85105469 4.80078125 8.41695312 5 9 C1.22454612 7.90931332 -1.47043472 7.0916909 -4 4 C-1.525 4.495 -1.525 4.495 1 5 C0.67 3.35 0.34 1.7 0 0 Z " fill="#94E2B8" transform="translate(482,635)"/>
<path d="M0 0 C0.66 0.33 1.32 0.66 2 1 C0.02 3.31 -1.96 5.62 -4 8 C-4.66 7.67 -5.32 7.34 -6 7 C-4.02 4.69 -2.04 2.38 0 0 Z " fill="#4DB98C" transform="translate(413,793)"/>
<path d="M0 0 C0.66 0.33 1.32 0.66 2 1 C0.35 2.98 -1.3 4.96 -3 7 C-3.99 6.34 -4.98 5.68 -6 5 C-4.02 3.35 -2.04 1.7 0 0 Z " fill="#50BB8F" transform="translate(615,792)"/>
</svg>
