<svg width="1051" height="561" viewBox="0 0 1051 561" fill="none" xmlns="http://www.w3.org/2000/svg">
<path d="M248.689 6.03078C249.996 6.6248 251.305 7.21646 252.614 7.80593C255.315 9.02618 258.009 10.2595 260.699 11.5044C264.498 13.2608 268.314 14.9771 272.138 16.6792C276.986 18.8391 281.83 21.0074 286.669 23.187C293.168 26.1119 299.676 29.0142 306.189 31.9058C307.793 32.6182 307.793 32.6182 309.429 33.345C314.823 35.7403 320.218 38.1342 325.612 40.5274C346.872 49.959 368.119 59.417 389.323 68.9741C399.768 73.6821 410.219 78.3775 420.689 83.0308C421.766 83.5103 422.844 83.9898 423.954 84.4839C428.527 86.5154 433.106 88.5308 437.712 90.4878C438.46 90.8073 439.208 91.1267 439.978 91.4558C441.866 92.2589 443.758 93.0517 445.65 93.8433C449.352 95.6703 452.798 97.561 454.689 101.343C455.248 107.028 455.248 107.028 454.689 109.343C450.745 114.024 446.326 116.327 440.845 118.918C439.999 119.327 439.152 119.737 438.279 120.16C435.587 121.46 432.888 122.745 430.189 124.031C428.375 124.906 426.561 125.781 424.748 126.658C421.42 128.261 418.092 129.863 414.757 131.451C414.091 131.769 413.424 132.087 412.737 132.415C410.416 133.467 408.061 134.412 405.689 135.343C405.562 143.227 405.475 151.11 405.414 158.994C405.392 161.677 405.357 164.358 405.312 167.04C405.251 170.895 405.223 174.75 405.201 178.605C405.175 179.804 405.149 181.003 405.122 182.239C405.009 188.862 405.009 188.862 408.11 194.507C408.961 195.113 409.812 195.719 410.689 196.343C413.937 200.288 414.809 203.303 414.882 208.378C414.906 209.915 414.906 209.915 414.931 211.483C414.975 216.159 415.016 220.835 415.039 225.512C415.056 227.979 415.083 230.447 415.121 232.914C415.176 236.471 415.198 240.028 415.212 243.585C415.235 244.688 415.258 245.79 415.281 246.926C415.268 251.697 415.254 254.48 412.6 258.537C409.014 260.762 406.803 260.988 402.595 261.007C401.926 261.012 401.257 261.017 400.568 261.022C399.159 261.025 397.75 261.016 396.342 260.995C394.194 260.968 392.051 260.995 389.904 261.027C388.53 261.024 387.156 261.017 385.783 261.007C384.542 261.002 383.301 260.996 382.023 260.99C378.689 260.343 378.689 260.343 375.785 258.512C372.655 253.78 372.991 249.539 373.06 243.98C373.058 242.874 373.055 241.768 373.053 240.629C373.054 238.291 373.067 235.953 373.092 233.616C373.126 230.054 373.113 226.494 373.093 222.931C373.1 220.656 373.11 218.38 373.123 216.105C373.118 215.046 373.113 213.988 373.108 212.897C373.206 206.625 373.796 201.446 377.689 196.343C378.745 195.566 379.801 194.789 380.889 193.989C383.956 191.091 384.128 190.615 384.462 186.645C384.503 184.767 384.511 182.889 384.494 181.011C384.507 180.019 384.521 179.028 384.535 178.006C384.572 174.847 384.569 171.69 384.564 168.531C384.582 166.386 384.603 164.24 384.626 162.095C384.678 156.844 384.697 151.594 384.689 146.343C373.3 151.422 361.96 156.564 350.751 162.031C349.518 162.63 348.285 163.228 347.051 163.826C344.514 165.057 341.978 166.289 339.441 167.521C333.447 170.434 327.442 173.324 321.439 176.218C312.414 180.573 303.394 184.938 294.378 189.312C291.598 190.66 288.818 192.007 286.037 193.353C279.86 196.344 273.685 199.34 267.527 202.369C264.895 203.663 262.26 204.951 259.625 206.238C257.814 207.125 256.007 208.02 254.201 208.916C241.279 215.218 229.485 219.207 215.251 214.531C207.072 211.319 199.29 207.264 191.47 203.273C186.105 200.539 180.692 197.922 175.251 195.343C164.655 190.308 154.108 185.175 143.564 180.031C110.713 163.999 110.713 163.999 77.6321 148.449C67.2951 143.667 57.0555 138.694 46.8268 133.685C39.2111 129.956 31.5905 126.257 23.8608 122.769C22.6641 122.228 21.4674 121.686 20.2344 121.129C18.0251 120.137 15.8115 119.155 13.5928 118.185C8.39065 115.853 4.19551 113.923 0.688955 109.343C-0.349985 106.475 -0.100915 104.264 0.688955 101.343C4.59991 96.7277 9.77053 94.007 15.2436 91.6714C15.9649 91.3519 16.6862 91.0323 17.4293 90.7031C19.8026 89.655 22.1831 88.6242 24.564 87.5933C26.2594 86.8481 27.9544 86.1019 29.6489 85.3545C34.1011 83.3943 38.5594 81.4484 43.0196 79.5065C49.8194 76.5434 56.6102 73.5596 63.4028 70.5802C65.9587 69.4596 68.5154 68.3406 71.072 67.2217C84.3124 61.4206 97.4911 55.4888 110.654 49.5143C126.41 42.363 142.205 35.3049 158.025 28.298C164.212 25.5569 170.394 22.8033 176.575 20.0466C180.445 18.3206 184.318 16.5984 188.195 14.8855C188.928 14.5613 189.662 14.2372 190.418 13.9031C191.855 13.2682 193.292 12.6333 194.729 11.9986C198.892 10.1547 203.031 8.26545 207.158 6.33938C208.101 5.90875 209.045 5.47812 210.017 5.03444C211.658 4.28525 213.292 3.51888 214.913 2.72829C226.883 -2.65088 237.397 0.708226 248.689 6.03078Z" fill="#67C198"/>
<path d="M0.688961 263.343C3.50206 263.324 6.31503 263.31 9.12817 263.3C9.9115 263.294 10.6948 263.288 11.5019 263.282C18.4318 263.262 25.2724 263.733 32.1572 264.51C33.2825 264.637 33.2825 264.637 34.4306 264.766C35.5794 264.897 35.5794 264.897 36.7515 265.031C37.5499 265.12 38.3483 265.209 39.171 265.3C96.5001 271.744 150.696 293.017 192.689 333.343C193.258 333.885 193.827 334.427 194.413 334.985C205.713 345.794 214.874 357.413 223.689 370.343C221.05 375.872 218.196 381.248 215.166 386.57C196.96 418.659 188.53 451.776 188.449 488.667C188.439 491.311 188.408 493.954 188.376 496.597C188.307 508.022 189.347 518.929 191.316 530.179C191.885 533.477 192.378 536.784 192.876 540.093C193.147 541.843 193.418 543.593 193.689 545.343C187.004 542.139 180.71 538.44 174.376 534.593C172.141 533.244 169.906 531.895 167.669 530.546C166.809 530.027 166.809 530.027 165.931 529.497C159.705 525.743 153.448 522.043 147.189 518.343C132.014 509.363 116.864 500.341 101.814 491.152C100.05 490.075 98.2857 488.999 96.5214 487.923C95.3448 487.205 94.1683 486.487 92.992 485.769C86.5617 481.844 80.1066 477.977 73.5601 474.25C72.9791 473.918 72.3981 473.587 71.7996 473.245C69.0612 471.685 66.3175 470.136 63.5642 468.603C52.1942 462.171 42.1737 454.298 32.689 445.343C31.9787 444.686 31.2684 444.028 30.5366 443.351C25.457 438.496 21.4542 433.267 17.689 427.343C17.0277 426.303 16.3664 425.263 15.6851 424.191C11.9268 417.965 8.84162 411.753 6.37646 404.906C6.14628 404.275 5.9161 403.645 5.67895 402.995C4.93198 400.796 4.30687 398.583 3.68896 396.343C3.43312 395.426 3.17728 394.508 2.91369 393.563C-0.19638 380.527 0.311891 367.393 0.395992 354.066C0.401597 351.442 0.405863 348.818 0.408855 346.193C0.41811 340.032 0.442634 333.87 0.472904 327.708C0.506654 320.682 0.522985 313.657 0.53799 306.631C0.569191 292.202 0.621821 277.772 0.688961 263.343Z" fill="#AAE7BF"/>
<path d="M438.091 301.269C439.808 301.275 441.525 301.28 443.242 301.285C447.391 301.298 451.54 301.319 455.689 301.343C455.783 310.759 455.853 320.175 455.896 329.592C455.917 333.966 455.945 338.341 455.991 342.716C456.398 382.587 451.542 416.245 422.658 446.433C409.611 459.544 392.523 468.334 376.68 477.527C367.797 482.682 358.956 487.909 350.126 493.156C349.136 493.744 349.136 493.744 348.126 494.344C341.08 498.529 334.042 502.728 327.017 506.949C321.423 510.31 315.814 513.642 310.194 516.959C300.138 522.894 290.118 528.88 280.146 534.954C278.384 536.026 276.622 537.096 274.858 538.166C274.284 538.515 273.71 538.863 273.118 539.222C272.548 539.568 271.979 539.913 271.392 540.269C267.06 542.898 262.739 545.543 258.423 548.199C256.491 549.373 254.559 550.546 252.626 551.718C251.777 552.248 250.928 552.777 250.053 553.323C241.478 558.484 231.792 561.778 221.689 560.343C216.641 558.927 212.06 557.257 207.689 554.343C205.031 543.78 205.286 532.358 205.314 521.531C205.315 520.727 205.315 519.924 205.316 519.096C205.384 497.07 208.769 476.268 215.689 455.343C216.025 454.314 216.025 454.314 216.367 453.263C230.083 412.003 257.871 373.31 293.009 347.574C294.686 346.345 296.344 345.094 298.001 343.839C338.649 313.506 387.946 300.961 438.091 301.269Z" fill="#AAE7BF"/>
<path d="M78.689 170.343C82.4853 171.103 84.7145 171.666 88.0225 173.302C88.8497 173.707 89.6768 174.112 90.5291 174.53C91.8573 175.192 91.8573 175.192 93.2124 175.867C94.6064 176.552 94.6064 176.552 96.0286 177.252C98.0141 178.229 99.9983 179.209 101.981 180.191C105.083 181.728 108.189 183.258 111.296 184.785C115.336 186.772 119.375 188.76 123.413 190.75C132.797 195.368 142.232 199.876 151.689 204.343C152.98 204.954 154.272 205.566 155.563 206.177C169.764 212.896 183.972 219.604 198.251 226.156C199.094 226.546 199.936 226.936 200.804 227.338C215.547 234.051 228.998 236.691 244.689 231.343C261.664 224.775 277.908 215.953 294.244 207.957C302.578 203.877 310.939 199.857 319.322 195.876C325.597 192.888 331.822 189.811 337.999 186.626C342.476 184.343 342.476 184.343 344.689 184.343C344.689 215.693 344.689 247.043 344.689 279.343C338.622 282.101 332.679 284.777 326.527 287.27C300.089 298.123 275.977 313.669 254.314 332.234C253.724 332.738 253.134 333.241 252.527 333.761C251.368 334.753 250.214 335.75 249.064 336.752C246.606 338.868 244.799 340.307 241.689 341.343C241.106 340.556 240.524 339.768 239.923 338.957C233.659 330.591 226.942 322.863 219.689 315.343C218.764 314.377 218.764 314.377 217.82 313.392C208.989 304.211 199.933 295.911 189.689 288.343C188.803 287.663 187.918 286.982 187.005 286.281C173.895 276.383 159.543 268.294 144.689 261.343C143.767 260.903 143.767 260.903 142.827 260.455C122.339 250.736 100.814 245.449 78.689 240.343C78.689 217.243 78.689 194.143 78.689 170.343Z" fill="#67C198"/>
<path d="M284.689 354.343C285.349 354.673 286.009 355.003 286.689 355.343C277.119 364.913 267.549 374.483 257.689 384.343C257.029 384.013 256.369 383.683 255.689 383.343C261.897 376.509 268.171 369.759 274.689 363.218C275.228 362.675 275.767 362.131 276.323 361.571C278.972 358.932 281.618 356.484 284.689 354.343Z" fill="#A1E3B8"/>
<path d="M184.689 539.343C189.439 541.218 189.439 541.218 191.689 542.343C192.019 541.683 192.349 541.023 192.689 540.343C193.019 541.993 193.349 543.643 193.689 545.343C192.373 544.726 191.061 544.099 189.751 543.468C189.021 543.12 188.29 542.772 187.537 542.414C185.689 541.343 185.689 541.343 184.689 539.343Z" fill="#A0E3B8"/>
<path d="M382.689 192.343C383.349 192.673 384.009 193.003 384.689 193.343C383.399 194.719 382.062 196.051 380.689 197.343C380.029 197.343 379.369 197.343 378.689 197.343C378.359 198.333 378.029 199.323 377.689 200.343C377.359 199.683 377.029 199.023 376.689 198.343C380.439 193.468 380.439 193.468 382.689 192.343Z" fill="#58BA8E"/>
<path d="M501 294C511.89 294 522.78 294 534 294C538.5 303 538.5 303 540.087 307.38C540.445 308.359 540.802 309.338 541.17 310.347C541.543 311.384 541.916 312.42 542.301 313.488C542.9 315.135 542.9 315.135 543.511 316.815C544.783 320.313 546.048 323.812 547.312 327.312C548.15 329.621 548.988 331.929 549.826 334.236C551.057 337.624 552.287 341.011 553.514 344.4C556.975 353.946 560.476 363.477 564 373C568.149 363.451 571.729 353.723 575.276 343.938C576.925 339.388 578.584 334.84 580.242 330.293C580.567 329.402 580.891 328.512 581.226 327.594C583.908 320.237 586.624 312.894 589.375 305.562C589.738 304.594 590.1 303.626 590.474 302.628C592.868 296.263 592.868 296.263 594 294C605.22 294 616.44 294 628 294C628.023 310.02 628.041 326.04 628.052 342.06C628.057 349.498 628.064 356.935 628.075 364.373C628.085 370.854 628.092 377.334 628.094 383.815C628.095 387.248 628.098 390.682 628.106 394.115C628.114 397.942 628.114 401.769 628.114 405.595C628.117 406.742 628.121 407.889 628.124 409.07C628.123 410.106 628.122 411.142 628.12 412.21C628.121 413.116 628.122 414.022 628.123 414.956C628 417 628 417 627 418C619.41 418 611.82 418 604 418C603.67 389.95 603.34 361.9 603 333C600.587 339.332 598.174 345.664 595.688 352.188C594.898 354.258 594.108 356.328 593.295 358.46C590.042 366.99 586.796 375.522 583.594 384.07C583.092 385.407 582.589 386.744 582.087 388.081C581.175 390.512 580.267 392.944 579.364 395.378C578.959 396.456 578.554 397.534 578.137 398.645C577.793 399.566 577.45 400.487 577.096 401.437C575.919 404.189 574.789 406.592 573 409C571.007 409.568 571.007 409.568 568.77 409.488C568.046 409.476 567.323 409.463 566.577 409.45C565.209 409.382 565.209 409.382 563.812 409.312C562.241 409.255 560.669 409.199 559.096 409.145C557.731 409.097 556.365 409.048 555 409C548.359 392.697 542.157 376.241 536 359.75C532.7 350.922 529.4 342.095 526 333C525.67 361.05 525.34 389.1 525 418C517.08 418 509.16 418 501 418C501 377.08 501 336.16 501 294Z" fill="#85D7A7"/>
<path d="M858 169C861.994 172.152 865.086 174.853 866 180C866.681 179.299 867.361 178.597 868.062 177.875C869.038 176.913 870.018 175.955 871 175C871.508 174.496 872.016 173.992 872.539 173.473C879.17 167.298 885.947 164.789 895 164.562C904.996 164.92 911.8 166.765 919.09 173.836C928.088 184.03 927.298 198.081 927.23 210.914C927.229 212.421 927.229 213.927 927.229 215.433C927.228 218.565 927.219 221.696 927.206 224.828C927.189 228.848 927.185 232.869 927.186 236.889C927.186 239.988 927.18 243.087 927.173 246.185C927.17 247.669 927.168 249.153 927.167 250.637C927.165 252.698 927.156 254.758 927.145 256.819C927.141 257.991 927.138 259.164 927.134 260.372C927 263 927 263 926 264C924.377 264.099 922.751 264.131 921.125 264.133C920.14 264.134 919.155 264.135 918.141 264.137C917.104 264.133 916.068 264.129 915 264.125C913.445 264.131 913.445 264.131 911.859 264.137C910.875 264.135 909.89 264.134 908.875 264.133C907.965 264.132 907.055 264.131 906.117 264.129C904 264 904 264 903 263C902.897 260.982 902.864 258.96 902.858 256.939C902.848 254.991 902.848 254.991 902.837 253.003C902.835 252.304 902.833 251.605 902.831 250.885C902.824 248.699 902.809 246.513 902.79 244.326C902.737 238.108 902.69 231.89 902.674 225.671C902.664 221.87 902.635 218.07 902.593 214.269C902.581 212.824 902.575 211.378 902.578 209.932C902.76 199.206 902.76 199.206 898 190C893.28 187.239 889.428 186.408 884 187C878.495 189.051 875.449 191.986 872.91 197.268C871.859 200.424 871.728 203.01 871.697 206.335C871.68 207.593 871.664 208.85 871.647 210.146C871.638 211.509 871.63 212.872 871.621 214.234C871.605 215.637 871.588 217.04 871.57 218.443C871.524 222.125 871.489 225.807 871.457 229.489C871.405 235.397 871.34 241.305 871.269 247.212C871.246 249.278 871.23 251.344 871.214 253.41C871.201 254.655 871.187 255.9 871.174 257.183C871.159 258.835 871.159 258.835 871.145 260.522C871 263 871 263 870 264C868.365 264.087 866.727 264.107 865.09 264.098C864.1 264.094 863.111 264.091 862.092 264.088C861.051 264.08 860.01 264.071 858.938 264.062C857.893 264.058 856.848 264.053 855.771 264.049C853.181 264.037 850.59 264.021 848 264C847.994 263.216 847.988 262.432 847.982 261.624C847.924 254.209 847.852 246.795 847.764 239.381C847.72 235.57 847.68 231.759 847.654 227.947C847.627 224.264 847.587 220.581 847.537 216.899C847.52 215.499 847.509 214.098 847.502 212.698C847.759 200.737 847.759 200.737 842.533 190.37C838.916 187.138 834.828 186.533 830.055 186.695C826.361 187.243 823.828 188.601 821 191C816.151 198.237 816.412 205.261 816.426 213.746C816.413 215.167 816.399 216.588 816.383 218.009C816.345 221.726 816.33 225.442 816.32 229.159C816.3 235.132 816.244 241.104 816.191 247.077C816.176 249.163 816.169 251.248 816.163 253.334C816.156 254.59 816.149 255.845 816.142 257.138C816.137 258.804 816.137 258.804 816.131 260.504C816 263 816 263 815 264C813.377 264.099 811.751 264.131 810.125 264.133C809.14 264.134 808.155 264.135 807.141 264.137C806.104 264.133 805.068 264.129 804 264.125C802.445 264.131 802.445 264.131 800.859 264.137C799.875 264.135 798.89 264.134 797.875 264.133C796.965 264.132 796.055 264.131 795.117 264.129C793 264 793 264 792 263C791.899 260.053 791.864 257.129 791.871 254.182C791.869 253.256 791.867 252.331 791.865 251.378C791.861 248.304 791.864 245.23 791.867 242.156C791.867 240.03 791.866 237.904 791.864 235.778C791.863 231.316 791.865 226.853 791.87 222.391C791.875 216.657 791.872 210.924 791.866 205.19C791.862 200.798 791.864 196.405 791.866 192.013C791.867 189.898 791.866 187.784 791.864 185.669C791.861 182.719 791.865 179.769 791.871 176.818C791.869 175.935 791.867 175.052 791.865 174.142C791.886 168.114 791.886 168.114 793 167C794.635 166.913 796.273 166.893 797.91 166.902C798.9 166.906 799.889 166.909 800.908 166.912C801.949 166.92 802.99 166.929 804.062 166.937C805.63 166.944 805.63 166.944 807.229 166.951C809.819 166.963 812.41 166.979 815 167C815.33 169.97 815.66 172.94 816 176C816.508 175.529 817.016 175.059 817.539 174.574C828.82 164.371 844.181 160.566 858 169Z" fill="#85D6A6"/>
<path d="M501 131C528.39 131 555.78 131 584 131C584 138.59 584 146.18 584 154C583 155 583 155 580.792 155.12C579.817 155.118 578.842 155.116 577.838 155.114C576.737 155.113 575.636 155.113 574.501 155.113C573.303 155.108 572.105 155.103 570.871 155.098C569.652 155.096 568.432 155.095 567.176 155.093C563.263 155.088 559.35 155.075 555.438 155.062C552.792 155.057 550.147 155.053 547.502 155.049C541.001 155.039 534.501 155.019 528 155C528 165.56 528 176.12 528 187C531.526 186.988 535.051 186.977 538.684 186.965C542.082 186.957 545.481 186.951 548.88 186.945C551.25 186.94 553.62 186.933 555.99 186.925C559.388 186.912 562.786 186.907 566.184 186.902C567.25 186.897 568.317 186.892 569.416 186.887C570.887 186.887 570.887 186.887 572.388 186.886C573.691 186.883 573.691 186.883 575.02 186.88C577 187 577 187 578 188C578.099 189.477 578.131 190.958 578.133 192.438C578.134 193.332 578.135 194.227 578.137 195.148C578.133 196.089 578.129 197.03 578.125 198C578.129 198.941 578.133 199.882 578.137 200.852C578.135 201.746 578.134 202.641 578.133 203.562C578.132 204.389 578.131 205.215 578.129 206.066C578 208 578 208 577 209C575.465 209.093 573.926 209.117 572.388 209.114C571.407 209.113 570.427 209.113 569.416 209.113C568.349 209.108 567.283 209.103 566.184 209.098C564.554 209.096 564.554 209.096 562.892 209.093C559.407 209.088 555.922 209.075 552.438 209.062C550.081 209.057 547.725 209.053 545.369 209.049C539.579 209.039 533.79 209.019 528 209C528 219.56 528 230.12 528 241C547.14 241 566.28 241 586 241C586 248.59 586 256.18 586 264C557.95 264 529.9 264 501 264C501 220.11 501 176.22 501 131Z" fill="#86D7A7"/>
<path d="M965.688 331.688C975.692 338.864 980.176 347.528 984 359C985.242 376.051 985.204 392.192 974 406C973.499 406.625 972.997 407.25 972.48 407.895C966.286 414.813 957.112 419.554 947.819 420.137C933.297 420.723 921.201 420.26 910 410C902.27 402.746 896.565 393.223 895.823 382.426C895.756 379.263 895.715 376.101 895.688 372.938C895.658 371.855 895.629 370.773 895.6 369.658C895.505 357.521 899.588 346.09 907.812 336.996C923.699 322.167 947.453 320.611 965.688 331.688Z" fill="#85D7A6"/>
<path d="M760.938 170.75C767.172 175.383 771.551 180.538 774 188C774.259 190.677 774.383 193.105 774.341 195.771C774.341 196.885 774.341 196.885 774.342 198.021C774.34 200.45 774.317 202.879 774.293 205.309C774.287 207.003 774.283 208.696 774.28 210.39C774.269 214.831 774.239 219.271 774.206 223.711C774.175 228.25 774.162 232.788 774.146 237.326C774.114 246.218 774.063 255.109 774 264C770.688 264.029 767.375 264.047 764.062 264.062C763.117 264.071 762.171 264.079 761.197 264.088C759.849 264.093 759.849 264.093 758.473 264.098C757.224 264.106 757.224 264.106 755.949 264.114C754 264 754 264 753 263C752.632 260.672 752.298 258.338 752 256C751.154 256.577 750.309 257.155 749.438 257.75C739.496 264.316 731.045 267.181 719 266C710.478 264.196 702.451 261.905 697.285 254.562C691.808 245.695 691.297 238.192 692 228C693.561 221.69 697.7 217.544 703 214C710.341 209.608 718.692 208.435 727 207C727.937 206.809 728.874 206.618 729.84 206.422C734.195 205.84 738.487 205.895 742.875 205.938C743.754 205.942 744.633 205.947 745.539 205.951C747.693 205.963 749.846 205.981 752 206C751.132 195.276 751.132 195.276 745 187C740.95 184.592 736.607 184.33 732 185C725.027 187.113 723.889 189.194 720 196C712.41 196 704.82 196 697 196C697 186.832 700.631 181.669 706.801 175.043C720.626 162.2 745.14 160.886 760.938 170.75Z" fill="#85D7A6"/>
<path d="M709.812 330.695C719.958 338.154 724.233 347.973 727 360C727 366.27 727 372.54 727 379C706.54 379 686.08 379 665 379C668.278 391.36 668.278 391.36 677.125 398.937C683.276 401.143 690.392 400.885 696.5 398.812C699.152 397.162 699.152 397.162 700.422 394.406C704.024 391.045 706.741 391.485 711.527 391.561C712.591 391.602 713.654 391.644 714.75 391.687C715.829 391.71 716.908 391.733 718.02 391.756C720.681 391.815 723.34 391.897 726 392C724.867 400.976 720.105 407.873 713.152 413.531C701.917 421.198 688.027 421.571 674.892 419.7C664.376 417.52 655.057 411.928 649 403C641.031 389.475 639.311 372.75 642.91 357.445C644.938 350.401 647.997 344.36 653 339C653.523 338.388 654.047 337.775 654.586 337.145C668.038 322.334 693.078 320.608 709.812 330.695Z" fill="#85D7A6"/>
<path d="M809.188 329.625C815.912 335.304 819.243 342.492 821 351C821.393 356.215 821.351 361.408 821.293 366.633C821.287 368.121 821.283 369.609 821.28 371.096C821.269 374.98 821.239 378.862 821.206 382.745C821.175 386.721 821.162 390.696 821.146 394.672C821.114 402.448 821.062 410.224 821 418C813.41 418 805.82 418 798 418C797.985 416.285 797.971 414.57 797.956 412.803C797.904 407.111 797.839 401.419 797.764 395.728C797.72 392.28 797.68 388.832 797.654 385.384C797.622 381.412 797.568 377.44 797.512 373.469C797.505 372.241 797.499 371.014 797.492 369.749C797.313 358.651 797.313 358.651 791.5 349.563C786.303 346.315 780.961 346.378 775 347C769.833 349.584 766.951 352.443 764.948 357.828C763.414 363.413 763.642 369.184 763.586 374.934C763.567 376.167 763.547 377.4 763.527 378.67C763.468 382.593 763.421 386.515 763.375 390.438C763.338 393.104 763.298 395.77 763.258 398.436C763.162 404.957 763.078 411.478 763 418C755.41 418 747.82 418 740 418C740 387.97 740 357.94 740 327C747.26 327 754.52 327 762 327C762.33 330.3 762.66 333.6 763 337C763.508 336.457 764.016 335.915 764.539 335.355C776.802 322.611 793.714 321.736 809.188 329.625Z" fill="#84D6A6"/>
<path d="M598 168C606.865 166.7 616.287 165.414 625 168C630.952 172.657 633.966 179.646 636.886 186.454C638.351 189.802 640.127 192.866 642 196C646.721 189.187 651.017 182.123 655.304 175.034C655.767 174.27 656.23 173.506 656.707 172.719C657.124 172.027 657.542 171.336 657.972 170.623C659 169 659 169 660 168C661.927 167.913 663.857 167.893 665.785 167.902C666.955 167.906 668.125 167.909 669.33 167.912C670.562 167.92 671.793 167.929 673.062 167.938C674.916 167.944 674.916 167.944 676.807 167.951C679.871 167.963 682.936 167.979 686 168C684.693 171.561 683.135 174.515 680.98 177.633C680.376 178.513 679.771 179.393 679.149 180.3C678.178 181.699 678.178 181.699 677.188 183.125C676.194 184.568 676.194 184.568 675.181 186.04C673.808 188.035 672.433 190.029 671.056 192.021C667.876 196.629 664.72 201.253 661.562 205.875C660.481 207.456 659.399 209.037 658.316 210.617C657.867 211.273 657.418 211.929 656.955 212.605C656.64 213.065 656.325 213.526 656 214C657.917 218.002 660.41 221.475 663 225.062C668.298 232.489 673.44 240.015 678.515 247.594C679.339 248.824 680.164 250.052 680.991 251.278C682.16 253.014 683.323 254.755 684.484 256.496C685.162 257.509 685.84 258.521 686.538 259.564C688 262 688 262 688 264C665.111 266.68 665.111 266.68 658.787 262.557C655.223 258.707 653.13 254.112 651.071 249.332C649.365 245.617 647.093 242.318 644.812 238.938C644.066 237.782 643.322 236.625 642.582 235.465C642.06 234.651 641.538 233.838 641 233C635.442 240.436 630.726 248.325 626.001 256.306C625.246 257.579 625.246 257.579 624.477 258.879C624.024 259.648 623.571 260.417 623.104 261.209C622 263 622 263 621 264C619.146 264.087 617.289 264.107 615.434 264.098C614.309 264.094 613.184 264.091 612.025 264.088C610.841 264.08 609.657 264.071 608.438 264.062C607.25 264.058 606.062 264.053 604.838 264.049C601.892 264.037 598.946 264.021 596 264C597.414 260.102 599.252 256.849 601.527 253.387C602.585 251.773 602.585 251.773 603.664 250.126C604.422 248.98 605.18 247.834 605.938 246.688C606.707 245.515 607.477 244.342 608.246 243.169C612.986 235.958 617.794 228.794 622.863 221.809C626.138 217.304 626.138 217.304 627 212C625.479 209.404 623.95 207.181 622.125 204.812C621.024 203.322 619.928 201.829 618.836 200.332C618.23 199.501 617.624 198.671 616.999 197.815C613.503 192.892 610.207 187.838 606.91 182.78C605.756 181.009 604.597 179.24 603.438 177.472C598 169.13 598 169.13 598 168Z" fill="#85D6A6"/>
<path d="M844 302C851.59 302 859.18 302 867 302C867 310.25 867 318.5 867 327C873.6 327 880.2 327 887 327C887 332.94 887 338.88 887 345C880.4 345 873.8 345 867 345C867.069 351.869 867.157 358.737 867.262 365.605C867.296 367.941 867.324 370.277 867.346 372.612C867.38 375.974 867.432 379.334 867.488 382.695C867.498 384.257 867.498 384.257 867.508 385.849C867.616 391.212 867.749 395.488 871 400C876.836 401.509 882.077 400.833 888 400C888 405.61 888 411.22 888 417C881.301 419.871 878.009 420.495 871.125 420.438C870.278 420.457 869.431 420.477 868.559 420.498C860.905 420.492 854.714 418.596 849.125 413.25C843.822 405.14 843.585 398.222 843.707 388.75C843.711 387.496 843.716 386.242 843.72 384.95C843.734 381.643 843.761 378.335 843.794 375.028C843.825 371.642 843.838 368.257 843.854 364.871C843.886 358.247 843.938 351.624 844 345C839.38 345 834.76 345 830 345C830 339.06 830 333.12 830 327C834.62 327 839.24 327 844 327C844 318.75 844 310.5 844 302Z" fill="#84D6A6"/>
<path d="M1049 325C1050 326 1050 326 1050.11 328.225C1050.11 329.183 1050.1 330.141 1050.1 331.129C1050.09 332.163 1050.09 333.198 1050.09 334.264C1050.08 335.897 1050.08 335.897 1050.06 337.562C1050.06 338.655 1050.05 339.747 1050.05 340.873C1050.04 343.582 1050.02 346.291 1050 349C1049.08 348.954 1048.16 348.907 1047.22 348.859C1036.9 348.445 1036.9 348.445 1028 353C1017.78 364.303 1020.73 383.508 1020.44 397.812C1020.39 399.777 1020.35 401.741 1020.31 403.705C1020.2 408.47 1020.1 413.235 1020 418C1012.41 418 1004.82 418 997 418C997 387.97 997 357.94 997 327C1004.59 327 1012.18 327 1020 327C1020.33 330.96 1020.66 334.92 1021 339C1021.97 337.618 1022.94 336.236 1023.94 334.812C1030.84 326.059 1037.96 323.745 1049 325Z" fill="#85D6A6"/>
<path d="M751 222C751.345 228.353 751.323 233.351 748 239C744.207 242.995 740.272 245.765 734.758 246.336C723.739 246.454 723.739 246.454 720.25 244.25C716.667 240.667 716.667 240.667 716 238C716.073 233.419 716.336 231.031 718.812 227.188C728.278 220.692 740.018 221.649 751 222Z" fill="#FCFCFC"/>
<path d="M695.5 345.125C700.51 348.883 703.538 352.888 705 359C705 360.32 705 361.64 705 363C691.8 363 678.6 363 665 363C666.294 355.236 669.026 350.488 675.062 345.438C681.215 342.444 689.17 343.09 695.5 345.125Z" fill="#FCFDFD"/>
<path d="M679 250C682.848 253.42 685.606 257.468 688 262C688 262.66 688 263.32 688 264C679.09 264 670.18 264 661 264C661 263.01 661 262.02 661 261C668.92 261 676.84 261 685 261C683.02 258.03 681.04 255.06 679 252C679 251.34 679 250.68 679 250Z" fill="#74D29B"/>
<path d="M598 259C598.33 259.66 598.66 260.32 599 261C606.59 261 614.18 261 622 261C621.67 261.99 621.34 262.98 621 264C612.75 264 604.5 264 596 264C596.66 262.35 597.32 260.7 598 259Z" fill="#71D19A"/>
<path d="M646 351C647.56 354.119 646.627 356.638 646 360C644.938 362.938 644.938 362.938 644 365C643.67 365 643.34 365 643 365C642.654 359.346 643.566 355.97 646 351Z" fill="#6ED197"/>
<path d="M698 399C697.67 399.99 697.34 400.98 697 402C691.72 402 686.44 402 681 402C681 401.67 681 401.34 681 401C681.831 400.939 682.663 400.879 683.52 400.816C685.15 400.691 685.15 400.691 686.812 400.562C687.891 400.481 688.97 400.4 690.082 400.316C692.848 400.016 695.244 399 698 399Z" fill="#66CE91"/>
</svg>
