<svg width="109" height="98" viewBox="0 0 109 98" fill="none" xmlns="http://www.w3.org/2000/svg">
<path fill-rule="evenodd" clip-rule="evenodd" d="M45.1993 37.9624L57.0206 17.7208L68.7583 37.9508L79.0243 37.9653L56.9962 0L34.9654 37.9486C38.2632 37.9469 41.7146 37.9537 45.1993 37.9624ZM73.9576 46.9117L83.8687 63.9936L91.9052 77.8442H102.163L84.2057 46.8953C80.7282 46.9043 77.2722 46.9117 73.9576 46.9117Z" fill="#0986AE"/>
<path fill-rule="evenodd" clip-rule="evenodd" d="M68.7821 37.9922C61.0237 37.9789 52.7122 37.9409 45.2863 37.9497L40.1185 46.912C50.9216 46.8995 62.8393 46.876 73.9335 46.8703L68.7821 37.9922Z" fill="#0986AE"/>
<path fill-rule="evenodd" clip-rule="evenodd" d="M12.1116 77.8442H84.2666L79.1189 68.9718H27.4694L36.3399 53.502L26.0912 53.5139L12.1116 77.8442Z" fill="#0986AE"/>
<path fill-rule="evenodd" clip-rule="evenodd" d="M27.4657 53.502H69.7972L74.9455 62.3744H30.6403L26.8877 54.5049L27.4657 53.502Z" fill="#0986AE"/>
<path d="M22.377 97.856H29.6425V96.0443H24.3683V93.7171H27.6236L28.6393 91.9497H24.3683V89.6519H29.4435V87.8403H22.377V97.856Z" fill="#0986AE"/>
<path d="M16.8585 97.9886C18.7217 97.9886 20.0588 97.1343 20.8979 95.7793L19.3476 94.6746C18.807 95.5287 18.11 96.1475 16.8585 96.1475C15.1089 96.1475 13.9286 94.7189 13.9286 92.8483C13.9286 90.9777 15.1089 89.5785 16.8585 89.5785C17.968 89.5785 18.75 90.1233 19.2053 90.8892L20.7272 89.7698C19.8595 88.3707 18.608 87.7227 16.8585 87.7227C14.0851 87.7227 11.8803 89.8878 11.8803 92.8483C11.8803 95.8088 14.0851 97.9886 16.8585 97.9886Z" fill="#0986AE"/>
<path d="M36.4912 97.856H37.5483V95.3669H38.7519C41.4822 95.3669 42.8769 93.8203 42.8769 91.6109C42.8769 89.3574 41.4822 87.8403 38.7519 87.8403H36.4912V90.0332V91.1271V94.4388V97.856ZM37.5483 92.9549V90.0332V88.7831H38.6932C40.9391 88.7831 41.7759 89.9615 41.7759 91.6109C41.7759 93.2607 40.9391 94.4388 38.6932 94.4388H38.4063H37.5483V92.9549ZM48.4231 94.7778C49.803 94.218 50.5077 93.0396 50.5077 91.5372C50.5077 89.3721 49.0983 87.8403 46.368 87.8403H44.1221V97.856H45.1789V95.2047H46.368C46.7203 95.2047 47.0871 95.1755 47.425 95.1166L49.3478 97.856H50.5956L48.4231 94.7778ZM45.1789 94.2769V88.7831H46.3093C48.5552 88.7831 49.4067 89.9615 49.4067 91.5372C49.4067 93.1133 48.57 94.2769 46.3093 94.2769H45.1789ZM56.4795 97.9739C59.3271 97.9739 61.6173 95.8677 61.6173 92.8483C61.6173 89.8288 59.3271 87.7227 56.4795 87.7227C53.6462 87.7227 51.3564 89.8288 51.3564 92.8483C51.3564 95.8677 53.6462 97.9739 56.4795 97.9739ZM56.4795 97.0166C54.1602 97.0166 52.4574 95.2342 52.4574 92.8483C52.4574 90.4621 54.1602 88.6799 56.4795 88.6799C58.8135 88.6799 60.5163 90.4621 60.5163 92.8483C60.5163 95.2342 58.8135 97.0166 56.4795 97.0166ZM62.833 97.856H63.8901V95.3669H65.0937C67.824 95.3669 69.2186 93.8203 69.2186 91.6109C69.2186 89.3574 67.824 87.8403 65.0937 87.8403H62.833V97.856ZM63.8901 94.4388V88.7831H65.035C67.2809 88.7831 68.1177 89.9615 68.1177 91.6109C68.1177 93.2607 67.2809 94.4388 65.035 94.4388H63.8901ZM70.4639 97.856H76.7466V96.9134H71.5207V93.4702H75.998V92.5424H71.5207V88.7831H76.5411V87.8403H70.4639V97.856ZM82.3368 94.7778C83.7167 94.218 84.4214 93.0396 84.4214 91.5372C84.4214 89.3721 83.012 87.8403 80.2817 87.8403H78.0358V97.856H79.0926V95.2047H80.2817C80.634 95.2047 81.0011 95.1755 81.3387 95.1166L83.2618 97.856H84.5093L82.3368 94.7778ZM79.0926 94.2769V88.7831H80.223C82.4689 88.7831 83.3204 89.9615 83.3204 91.5372C83.3204 93.1133 82.4837 94.2769 80.223 94.2769H79.0926ZM87.8097 97.856H88.8667V88.7831H91.9346V87.8403H84.7417V88.7831H87.8097V97.856ZM92.8862 97.856H93.9577V87.8403H92.8862V97.856ZM95.79 97.856H102.073V96.9134H96.8471V93.4702H101.324V92.5424H96.8471V88.7831H101.867V87.8403H95.79V97.856ZM105.901 97.9739C107.692 97.9739 108.999 96.9724 108.999 95.3226C108.999 93.8203 108.148 92.9954 106.489 92.2589L105.696 91.8907C104.581 91.3754 104.111 90.9777 104.111 90.0938C104.111 89.2398 104.713 88.6652 105.696 88.6652C106.636 88.6652 107.164 89.1366 107.546 89.7551L108.397 89.225C107.869 88.3412 107.032 87.7227 105.696 87.7227C104.199 87.7227 103.069 88.6799 103.069 90.1233C103.069 91.5225 103.847 92.215 105.271 92.863L106.063 93.2312C107.311 93.7908 107.942 94.3064 107.942 95.3226C107.942 96.3831 107.032 97.0314 105.872 97.0314C104.463 97.0314 103.773 96.3097 103.303 95.47L102.423 95.9412C102.951 97.0019 103.993 97.9739 105.901 97.9739Z" fill="#0986AE"/>
<path fill-rule="evenodd" clip-rule="evenodd" d="M8.83221 96.0143H3.86621L2.8624 97.856H0.695892L6.34991 87.6711L12.0013 97.856H9.8345L8.83221 96.0143ZM4.862 94.1876H7.8381L6.35101 91.4556L4.862 94.1876Z" fill="#0986AE"/>
<path fill-rule="evenodd" clip-rule="evenodd" d="M30.1989 94.3645H34.6966L32.4408 90.4635L30.1989 94.3645Z" fill="#BDBFC1"/>
</svg>
